<?xml version="1.0" standalone="no"?>
<!DOCTYPE svg PUBLIC "-//W3C//DTD SVG 1.1//EN" "http://www.w3.org/Graphics/SVG/1.1/DTD/svg11.dtd" >
<svg xmlns="http://www.w3.org/2000/svg" xmlns:xlink="http://www.w3.org/1999/xlink" version="1.1">
<metadata>
Created by FontForge 20160407 at Thu Aug 25 23:07:10 2016
 By Jimmy Warting
Copyright (c) 1990-1996 ParaGraph. All Rights Reserved. Friz Quadrata is a registered trade mark of International Typeface Corporation.
</metadata>
<defs>
<font id="FrizQuadrataC-Italic" horiz-adv-x="636" >
  <font-face 
    font-family="FrizQuadrataC"
    font-weight="400"
    font-style="italic"
    font-stretch="normal"
    units-per-em="1000"
    panose-1="0 0 5 0 0 0 0 0 0 0"
    ascent="738"
    descent="-262"
    x-height="475"
    cap-height="700"
    bbox="-331 -262 1227 931"
    underline-thickness="50"
    underline-position="-100"
    slope="-12"
    stemh="67"
    stemv="87"
    unicode-range="U+0020-2122"
  />
<missing-glyph horiz-adv-x="233" 
 />
    <glyph glyph-name=".notdef" horiz-adv-x="233" 
 />
    <glyph glyph-name="space" unicode=" " horiz-adv-x="233" 
 />
    <glyph glyph-name="space" unicode="&#xa0;" horiz-adv-x="233" 
 />
    <glyph glyph-name="exclam" unicode="!" horiz-adv-x="420" 
d="M362 700l-127 -468c-8 -28 -8 -37 -8 -41c0 -6 3 -17 5 -23h-80c15 16 17 36 23 73l64 366c1 6 5 32 5 40c0 21 -10 36 -29 53h147zM177 126c22 0 44 -15 44 -54c0 -40 -22 -81 -61 -81c-23 0 -45 15 -45 54c0 53 33 81 62 81z" />
    <glyph glyph-name="quotedbl" unicode="&#x22;" horiz-adv-x="578" 
d="M256 419h-66l44 281h99zM422 419h-67l44 281h99z" />
    <glyph glyph-name="numbersign" unicode="#" horiz-adv-x="660" 
d="M387 0h-65l60 204h-146l-60 -204h-66l60 204h-147l18 62h147l49 165h-147l17 62h148l63 207h65l-61 -207h145l62 207h66l-62 -207h150l-18 -62h-151l-48 -165h150l-18 -62h-149zM400 266l50 165h-147l-49 -165h146z" />
    <glyph glyph-name="dollar" unicode="$" horiz-adv-x="542" 
d="M353 700l21 101h46l-21 -101c59 -3 101 -16 124 -25l-12 -133c-21 49 -69 81 -127 88l-50 -226l27 -16c86 -51 137 -96 137 -179c0 -91 -67 -202 -249 -209l-21 -98h-47l21 98c-30 1 -83 5 -143 30l-26 138c50 -53 114 -87 185 -94l56 259c-79 42 -143 92 -143 178
c0 87 73 186 222 189zM314 308l-50 -234c68 1 137 43 137 122c0 53 -33 80 -87 112zM295 432l42 198c-61 -6 -107 -45 -107 -100c0 -48 35 -80 65 -98z" />
    <glyph glyph-name="percent" unicode="%" horiz-adv-x="711" 
d="M259 710c63 0 123 -35 123 -122c0 -109 -72 -205 -171 -205c-62 0 -125 35 -125 123c0 77 42 204 173 204zM251 660c-58 0 -93 -77 -93 -153c0 -59 35 -74 59 -74c57 0 93 78 93 157c0 58 -34 70 -59 70zM591 697h63l-492 -697h-63zM547 318c63 0 123 -35 123 -122
c0 -109 -72 -205 -171 -205c-62 0 -125 35 -125 123c0 77 42 204 173 204zM539 268c-58 0 -93 -77 -93 -153c0 -59 35 -74 59 -74c57 0 93 78 93 157c0 58 -34 70 -59 70z" />
    <glyph glyph-name="ampersand" unicode="&#x26;" horiz-adv-x="676" 
d="M392 400l115 -186c127 -205 195 -263 279 -281c-36 -19 -73 -22 -90 -22c-35 0 -102 14 -187 141l-22 33c-69 -91 -164 -101 -214 -101c-149 0 -222 95 -222 194c0 127 92 176 221 237c-41 66 -58 106 -58 147c0 78 66 154 195 154c95 0 163 -45 163 -128
c0 -88 -89 -159 -180 -188zM359 457c56 25 109 62 109 121c0 34 -22 72 -77 72c-58 0 -87 -40 -87 -77c0 -12 4 -43 55 -116zM458 123l-150 236c-84 -41 -155 -77 -155 -165c0 -84 68 -137 151 -137c49 0 109 15 154 66z" />
    <glyph glyph-name="quotesingle" unicode="'" horiz-adv-x="414" 
d="M190 419l45 281h99l-77 -281h-67z" />
    <glyph glyph-name="parenleft" unicode="(" horiz-adv-x="305" 
d="M343 702h63c-157 -161 -241 -365 -241 -574c0 -80 12 -173 59 -274h-54c-58 105 -92 224 -92 334c0 100 24 299 265 514z" />
    <glyph glyph-name="parenright" unicode=")" horiz-adv-x="305" 
d="M-23 -146h-62c145 148 241 351 241 573c0 78 -12 172 -60 275h55c86 -157 92 -293 92 -335c0 -229 -146 -411 -266 -513z" />
    <glyph glyph-name="asterisk" unicode="*" horiz-adv-x="634" 
d="M370 700h97l-40 -64l-21 -82l90 38l43 36l19 -91h-71l-76 -18l48 -71l39 -33l-85 -51l-6 58l-30 85l-73 -82l-33 -61l-57 80l60 23l72 56l-78 20l-67 -6l53 97l46 -48l68 -32l11 95z" />
    <glyph glyph-name="plus" unicode="+" 
d="M377 117h-70v202h-198v70h198v202h70v-202h198v-70h-198v-202z" />
    <glyph glyph-name="comma" unicode="," horiz-adv-x="286" 
d="M1 -109l-18 23c37 8 85 28 113 76c-15 5 -36 17 -36 54c0 54 34 84 67 84c23 0 45 -15 45 -54c0 -61 -53 -122 -92 -150c-23 -17 -48 -28 -79 -33z" />
    <glyph glyph-name="hyphenminus" horiz-adv-x="362" 
d="M96 296h125c47 0 74 2 120 20l-67 -85h-126c-36 0 -73 -3 -117 -21z" />
    <glyph glyph-name="period" unicode="." horiz-adv-x="284" 
d="M114 133c18 0 46 -12 46 -56c0 -45 -23 -86 -64 -86c-28 0 -47 17 -47 57c0 55 32 85 65 85z" />
    <glyph glyph-name="slash" unicode="/" horiz-adv-x="376" 
d="M414 715h62l-504 -851h-62z" />
    <glyph glyph-name="zero" unicode="0" 
d="M398 716c54 0 238 -10 238 -258c0 -162 -81 -474 -353 -474c-161 0 -238 109 -238 266c0 171 90 466 353 466zM386 646c-183 0 -239 -271 -239 -403c0 -153 94 -189 151 -189c120 0 236 160 236 404c0 152 -78 188 -148 188z" />
    <glyph glyph-name="one" unicode="1" 
d="M345 549h-147c149 47 239 131 282 178l-133 -620c-6 -26 -7 -47 -7 -60c0 -10 1 -40 33 -47h-194c46 10 60 54 71 107z" />
    <glyph glyph-name="two" unicode="2" horiz-adv-x="635" 
d="M450 0h-461l313 320c118 121 137 175 137 214c0 56 -43 100 -125 100c-45 0 -85 -8 -163 -47l48 106c36 10 92 23 145 23c140 0 197 -85 197 -170c0 -89 -63 -156 -126 -220c-91 -92 -106 -104 -134 -132l-107 -106c30 -3 74 -8 161 -8c52 0 116 4 206 43z" />
    <glyph glyph-name="three" unicode="3" 
d="M180 332l19 86c40 -7 62 -8 81 -8c120 0 177 52 177 122c0 53 -34 108 -120 108c-54 0 -119 -21 -172 -58l55 111c72 20 102 23 138 23c166 0 201 -100 201 -163c0 -65 -31 -156 -175 -184c58 -6 142 -41 142 -152c0 -164 -154 -233 -300 -233c-44 0 -105 7 -168 23
l-30 116c50 -33 118 -63 199 -63c135 0 197 73 197 152c0 68 -44 125 -182 125c-21 0 -39 -1 -62 -5z" />
    <glyph glyph-name="four" unicode="4" 
d="M364 160h-368l447 540h129l-100 -464h27c49 0 77 6 118 31l-61 -107h-100l-11 -53c-2 -12 -7 -33 -7 -59c0 -15 3 -42 33 -48h-190c47 10 59 54 71 107zM386 236l88 396l-330 -396h242z" />
    <glyph glyph-name="five" unicode="5" 
d="M281 610l-44 -200c56 17 95 18 110 18c124 0 203 -71 203 -182c0 -135 -106 -262 -308 -262c-31 0 -81 3 -155 22l-47 123c63 -42 142 -69 212 -69c103 0 196 58 196 161c0 87 -69 135 -162 135c-40 0 -78 -8 -140 -31l80 375h241c62 0 103 1 148 29l-46 -119h-288z" />
    <glyph glyph-name="six" unicode="6" 
d="M204 338l53 91c22 10 63 24 117 24c130 0 216 -83 216 -208c0 -156 -126 -261 -275 -261c-147 0 -248 102 -248 249c0 224 203 482 539 483l-40 -63c-260 -17 -397 -229 -397 -402c0 -139 83 -194 165 -194c90 0 154 67 154 166c0 93 -61 157 -151 157
c-40 0 -90 -12 -133 -42z" />
    <glyph glyph-name="seven" unicode="7" 
d="M655 700l-377 -599c-12 -19 -36 -54 -36 -73c0 -13 14 -24 22 -28h-155l388 617c-59 9 -102 11 -154 11c-56 0 -130 -7 -205 -63l85 135h432z" />
    <glyph glyph-name="eight" unicode="8" horiz-adv-x="635" 
d="M242 377c-55 28 -100 82 -100 150c0 96 85 189 247 189c148 0 223 -77 223 -162c0 -84 -83 -151 -172 -172c120 -60 131 -139 131 -181c0 -155 -154 -217 -286 -217c-127 0 -250 52 -250 184c0 41 10 142 207 209zM384 413c64 19 124 70 124 134c0 66 -51 107 -127 107
c-87 0 -137 -54 -137 -107c0 -68 82 -108 140 -134zM299 48c118 0 170 63 170 132c0 47 -21 106 -172 168c-133 -68 -160 -118 -160 -171c0 -88 83 -129 162 -129z" />
    <glyph glyph-name="nine" unicode="9" 
d="M474 361l-52 -90c-25 -12 -65 -25 -118 -25c-130 0 -217 82 -217 208c0 135 93 262 275 262c180 0 252 -127 252 -249c0 -226 -207 -482 -542 -483l40 62c248 12 400 212 400 403c0 138 -85 194 -167 194c-90 0 -156 -66 -156 -166c0 -93 61 -157 150 -157
c34 0 87 8 135 41z" />
    <glyph glyph-name="colon" unicode=":" horiz-adv-x="286" 
d="M203 506c26 0 47 -19 47 -57c0 -53 -31 -85 -64 -85c-15 0 -48 7 -48 58c0 62 38 84 65 84zM115 133c18 0 46 -12 46 -56c0 -55 -30 -86 -64 -86c-47 0 -48 47 -48 57c0 55 33 85 66 85z" />
    <glyph glyph-name="semicolon" unicode=";" horiz-adv-x="286" 
d="M214 506c25 0 46 -19 46 -57c0 -46 -24 -85 -63 -85c-21 0 -49 9 -49 57c0 55 33 85 66 85zM1 -109l-18 23c37 8 85 28 113 76c-15 5 -36 17 -36 54c0 54 34 84 67 84c23 0 45 -15 45 -54c0 -61 -53 -122 -92 -150c-23 -17 -48 -28 -79 -33z" />
    <glyph glyph-name="less" unicode="&#x3c;" 
d="M541 607v-90l-356 -166l356 -166v-90l-446 216v80z" />
    <glyph glyph-name="equal" unicode="=" 
d="M575 467v-70h-466v70h466zM575 311v-70h-466v70h466z" />
    <glyph glyph-name="greater" unicode="&#x3e;" 
d="M493 351l-356 166v90l446 -216v-80l-446 -216v90z" />
    <glyph glyph-name="question" unicode="?" horiz-adv-x="454" 
d="M183 168h-83c-3 121 68 164 146 209c72 41 127 69 127 146c0 58 -44 116 -129 116c-29 0 -77 -4 -146 -44l40 96c75 21 120 21 138 21c144 0 199 -87 199 -174c0 -133 -101 -164 -188 -214c-46 -26 -108 -68 -105 -135zM134 126c22 0 44 -15 44 -53
c0 -42 -23 -82 -60 -82c-23 0 -45 15 -45 54c0 53 32 81 61 81z" />
    <glyph glyph-name="at" unicode="@" horiz-adv-x="782" 
d="M660 117l-15 -68c-99 -58 -207 -65 -256 -65c-186 0 -323 140 -323 340c0 234 163 392 399 392c192 0 310 -102 310 -271c0 -183 -129 -293 -225 -293c-55 0 -84 34 -84 70c0 16 5 44 13 70l48 158c-10 10 -32 27 -76 27c-81 0 -136 -75 -136 -156c0 -56 31 -84 87 -84
c18 0 32 2 52 8l-49 -66c-13 -4 -28 -7 -44 -7c-76 0 -124 55 -124 134c0 112 83 236 221 236c27 0 48 -4 68 -9s34 -9 49 -9c18 0 31 6 50 17l-71 -240c-3 -10 -11 -33 -11 -50c0 -14 10 -31 38 -31c71 0 125 125 125 221c0 134 -94 215 -248 215
c-200 0 -323 -138 -323 -320c0 -176 116 -291 294 -291c81 0 161 24 231 72z" />
    <glyph glyph-name="A" unicode="A" horiz-adv-x="686" 
d="M485 258h-273l-87 -147c-13 -22 -38 -60 -38 -80c0 -16 15 -27 27 -31h-180c54 18 65 55 85 87l309 490c25 39 40 65 40 86c0 27 -26 36 -31 37h164l101 -568c11 -64 19 -115 66 -132h-182c33 14 35 38 35 49s-2 23 -8 54zM473 325l-49 286l-170 -286h219z" />
    <glyph glyph-name="B" unicode="B" horiz-adv-x="612" 
d="M151 700h193c80 0 215 -2 215 -146c0 -97 -68 -172 -164 -181v-3c91 0 164 -62 164 -150c0 -79 -46 -147 -110 -184s-128 -36 -199 -36h-253c29 11 57 33 77 128l95 448c8 38 9 54 9 68c0 17 -1 41 -27 56zM277 633l-49 -226c23 -3 43 -4 65 -4c48 0 164 7 164 135
c0 51 -31 99 -129 99c-20 0 -39 -2 -51 -4zM213 334l-55 -252c28 -14 60 -21 109 -21c128 0 190 71 190 156c0 113 -130 119 -194 119c-18 0 -37 -1 -50 -2z" />
    <glyph glyph-name="C" unicode="C" horiz-adv-x="642" 
d="M630 694l-10 -139c-42 80 -116 85 -158 85c-218 0 -305 -185 -305 -338c0 -146 86 -235 220 -235c33 0 139 2 232 87l-49 -130c-93 -37 -166 -40 -199 -40c-188 0 -306 116 -306 304c0 211 150 428 426 428c34 0 78 -1 149 -22z" />
    <glyph glyph-name="D" unicode="D" horiz-adv-x="740" 
d="M152 700h228c120 0 341 -14 341 -282c0 -137 -68 -292 -203 -366c-88 -48 -181 -52 -264 -52h-257c39 13 59 43 77 128l96 449c7 35 9 49 9 67c0 17 -1 41 -27 56zM275 626l-116 -542c51 -15 93 -17 126 -17c265 0 334 212 334 342c0 166 -120 224 -250 224
c-45 0 -69 -3 -94 -7z" />
    <glyph glyph-name="E" unicode="E" horiz-adv-x="536" 
d="M521 700l-22 -130c-12 58 -68 60 -128 60c-26 0 -64 -2 -96 -6l-45 -209h120c22 0 58 2 78 9l-29 -136c4 51 -54 51 -80 51h-105l-56 -256c47 -8 86 -10 142 -10c102 0 159 6 228 67l-80 -140h-451c42 16 61 50 77 128l95 448c3 12 9 43 9 68c0 26 -7 43 -27 56h370z" />
    <glyph glyph-name="F" unicode="F" horiz-adv-x="454" 
d="M520 700l-21 -129c-20 57 -67 59 -131 59c-29 0 -63 -2 -93 -6l-45 -208h126c28 0 42 0 71 10l-28 -133c-1 43 -45 47 -77 47h-108l-51 -237c-4 -16 -8 -28 -8 -57c0 -14 1 -34 30 -46h-188c42 16 61 50 77 128l95 448c8 37 9 55 9 68c0 22 -4 41 -27 56h369z" />
    <glyph glyph-name="G" unicode="G" horiz-adv-x="717" 
d="M683 689l-24 -139c-47 81 -124 90 -172 90c-194 0 -330 -145 -330 -349c0 -195 157 -231 240 -231c25 0 75 3 121 15l28 130c9 40 11 54 11 61c0 21 -6 45 -31 60h161c-17 -11 -27 -31 -44 -113l-23 -109c-3 -12 -9 -44 -9 -64c0 -10 1 -17 2 -23
c-93 -27 -175 -33 -221 -33c-158 0 -337 63 -337 297c0 235 175 435 462 435c52 0 105 -5 166 -27z" />
    <glyph glyph-name="H" unicode="H" horiz-adv-x="760" 
d="M586 332h-373l-46 -208c-8 -37 -9 -58 -9 -68c0 -18 4 -39 27 -56h-188c36 14 59 40 77 127l95 449c6 27 9 44 9 68c0 17 -1 41 -27 56h190c-44 -16 -61 -51 -77 -127l-35 -165h373l37 168c4 19 9 45 9 67c0 27 -7 44 -27 57h188c-38 -13 -59 -44 -77 -127l-96 -449
c-3 -16 -8 -55 -8 -69c0 -32 13 -47 26 -55h-189c45 16 61 51 77 127z" />
    <glyph glyph-name="I" unicode="I" horiz-adv-x="291" 
d="M185 0h-188c37 14 58 43 76 128l96 448c8 38 9 54 9 68c0 17 -1 41 -27 56h189c-40 -14 -58 -43 -76 -127l-97 -449c-6 -29 -9 -50 -9 -68s4 -39 27 -56z" />
    <glyph glyph-name="J" unicode="J" horiz-adv-x="289" 
d="M150 700h191c-43 -15 -62 -51 -78 -128l-117 -550c-42 -196 -78 -248 -219 -248c-19 0 -30 1 -44 4c122 46 147 147 176 283l110 514c9 41 9 61 9 69c0 24 -7 44 -28 56z" />
    <glyph glyph-name="K" unicode="K" horiz-adv-x="622" 
d="M185 0h-188c37 14 58 43 76 128l96 448c8 38 9 54 9 68c0 17 -1 41 -27 56h189c-40 -14 -58 -43 -76 -127l-97 -449c-6 -29 -9 -50 -9 -68s4 -39 27 -56zM335 382l119 -218c63 -115 106 -149 154 -164c-32 -7 -44 -8 -68 -8c-83 0 -106 9 -162 110l-149 269l277 267
c7 7 19 18 19 32s-14 25 -26 30h182z" />
    <glyph glyph-name="L" unicode="L" horiz-adv-x="516" 
d="M424 0h-427c37 14 58 43 76 128l96 448c8 38 9 54 9 68c0 17 -1 41 -27 56h189c-40 -14 -58 -43 -76 -127l-106 -492c63 -9 103 -10 134 -10c98 0 144 12 210 67z" />
    <glyph glyph-name="M" unicode="M" horiz-adv-x="949" 
d="M466 153l258 443c27 46 41 72 51 104h180c-62 -18 -57 -61 -62 -125l-36 -474c-6 -84 28 -98 39 -101h-195c53 14 57 69 62 128l45 482l-363 -619l-20 22c-9 10 -31 35 -43 96l-102 501l-156 -481c-19 -59 -20 -76 -20 -84c0 -10 3 -30 24 -45h-169c52 16 64 61 87 129
l153 446c5 14 17 55 17 77c0 12 -3 32 -30 48h170c-1 -25 3 -47 13 -94z" />
    <glyph glyph-name="N" unicode="N" horiz-adv-x="748" 
d="M562 133l88 443c7 35 9 49 9 66c0 16 -1 39 -27 58h172c-42 -16 -61 -51 -77 -128l-110 -517l38 -65c-12 -5 -23 -6 -38 -6c-79 0 -102 38 -135 106l-239 489l-90 -455c-5 -27 -9 -49 -9 -69c0 -26 8 -43 27 -55h-173c36 14 59 40 77 127l87 411c4 21 13 53 13 86
c0 15 -3 46 -38 76h147c10 -39 24 -61 41 -94z" />
    <glyph glyph-name="O" unicode="O" horiz-adv-x="730" 
d="M435 716c261 0 270 -239 270 -299c0 -234 -147 -433 -377 -433c-171 0 -273 115 -273 298c0 223 144 434 380 434zM418 651c-134 0 -261 -140 -261 -370c0 -172 88 -232 186 -232c174 0 260 197 260 372c0 189 -113 230 -185 230z" />
    <glyph glyph-name="P" unicode="P" horiz-adv-x="555" 
d="M151 700h203c86 0 236 -7 236 -156c0 -112 -82 -225 -241 -225c-68 0 -96 18 -112 39c16 -3 38 -5 56 -5c128 0 195 90 195 174c0 109 -108 111 -147 111c-23 0 -42 -1 -64 -4l-110 -510c-6 -29 -9 -50 -9 -68s4 -39 27 -56h-188c37 14 58 43 76 127l96 449
c8 37 9 55 9 68c0 22 -4 41 -27 56z" />
    <glyph glyph-name="Q" unicode="Q" horiz-adv-x="725" 
d="M734 -184c-42 -33 -81 -35 -99 -35c-52 0 -134 32 -264 204c-10 -1 -19 -1 -29 -1c-199 0 -287 125 -287 297c0 180 115 435 377 435c57 0 273 -14 273 -298c0 -180 -80 -332 -229 -405c117 -182 236 -195 258 -197zM418 651c-135 0 -261 -140 -261 -370
c0 -171 88 -232 187 -232c196 0 259 238 259 372c0 165 -89 230 -185 230z" />
    <glyph glyph-name="R" unicode="R" horiz-adv-x="611" 
d="M151 700h208c90 0 210 -12 210 -147c0 -150 -135 -193 -214 -200l25 -53c119 -251 198 -290 241 -300c-18 -3 -54 -9 -84 -9c-100 0 -141 55 -220 224l-81 173l38 -2c87 -5 193 42 193 151c0 100 -98 101 -139 101c-17 0 -39 -2 -51 -3l-110 -511c-5 -25 -9 -47 -9 -68
c0 -18 4 -39 27 -56h-188c37 14 58 43 76 127l96 449c8 37 9 55 9 68c0 22 -4 41 -27 56z" />
    <glyph glyph-name="S" unicode="S" horiz-adv-x="548" 
d="M527 690l-14 -139c-30 71 -102 90 -155 90c-78 0 -138 -39 -138 -103c0 -67 65 -104 145 -154c103 -65 136 -107 136 -182c0 -117 -91 -218 -293 -218c-41 0 -95 3 -167 31l-27 144c68 -75 155 -100 223 -100c93 0 162 47 162 130c0 55 -28 81 -136 146
c-61 37 -145 82 -145 183c0 102 80 198 252 198c42 0 89 -4 157 -26z" />
    <glyph glyph-name="T" unicode="T" horiz-adv-x="550" 
d="M307 633h-115c-56 0 -84 3 -129 -31l55 108c7 -3 27 -10 72 -10h388c41 0 78 6 83 7l-51 -108c-16 33 -37 34 -72 34h-137l-110 -509c-3 -16 -8 -48 -8 -69c0 -15 0 -39 27 -55h-189c45 16 61 51 77 127z" />
    <glyph glyph-name="U" unicode="U" horiz-adv-x="703" 
d="M133 700h188c-39 -14 -57 -43 -75 -127l-64 -294c-4 -18 -14 -63 -14 -100c0 -58 38 -120 138 -120c85 0 139 46 164 76c34 39 40 74 55 144l62 294c1 5 9 43 9 71c0 16 -2 43 -30 56h192c-37 -14 -58 -43 -76 -127l-96 -449c-4 -17 -9 -49 -9 -68c0 -18 4 -39 27 -56
h-148l25 79c-78 -86 -171 -95 -213 -95c-137 0 -202 82 -202 164c0 31 7 60 15 97l70 331c4 18 9 48 9 69c0 17 -4 38 -27 55z" />
    <glyph glyph-name="V" unicode="V" horiz-adv-x="583" 
d="M279 144l276 476c6 10 19 38 19 49c0 6 -4 23 -22 31h139l-430 -722l-21 19c-32 29 -42 43 -57 136l-72 461c-10 64 -17 95 -47 106h185c-21 -5 -43 -20 -43 -55c0 -14 4 -44 6 -59z" />
    <glyph glyph-name="W" unicode="W" horiz-adv-x="932" 
d="M250 132l236 471c6 12 15 31 15 56c0 12 -3 32 -26 41h137c-7 -20 -8 -35 -8 -50c0 -7 1 -18 4 -50l48 -468l255 494c13 24 17 36 17 46c0 5 0 21 -17 28h124l-385 -722l-31 22c-56 40 -54 98 -60 166l-33 368l-281 -556l-37 29c-49 38 -45 82 -53 150l-48 437
c-6 53 -9 88 -38 106h169c-39 -15 -41 -42 -41 -59c0 -18 2 -29 3 -41z" />
    <glyph glyph-name="X" unicode="X" horiz-adv-x="638" 
d="M373 439l141 150c25 27 57 62 57 84c0 9 -8 21 -13 27h165l-321 -323l93 -230c29 -72 51 -130 113 -147c-37 -7 -58 -11 -86 -11c-61 0 -79 22 -132 163l-64 170l-222 -240c-15 -17 -30 -31 -30 -51c0 -4 1 -20 17 -31h-168l373 382l-59 153c-32 82 -46 128 -94 165h138
c6 -23 12 -43 20 -64z" />
    <glyph glyph-name="Y" unicode="Y" horiz-adv-x="578" 
d="M360 308l-39 -183c-5 -22 -9 -53 -9 -70c0 -15 2 -39 27 -55h-190c40 14 58 44 76 128l39 180c-101 277 -208 382 -219 392c31 7 49 8 59 8c71 0 134 -43 230 -319l202 247c15 18 16 27 16 35c0 4 -1 17 -18 29h148z" />
    <glyph glyph-name="Z" unicode="Z" horiz-adv-x="618" 
d="M668 700l-526 -614c22 -3 113 -14 203 -14c119 0 189 20 252 64l-86 -136h-552l528 618c-60 9 -103 10 -147 10c-68 0 -129 -3 -207 -58l72 130h463z" />
    <glyph glyph-name="bracketleft" unicode="[" horiz-adv-x="352" 
d="M299 646l-159 -736h115l-10 -56h-242c52 20 56 70 74 155l120 563c10 46 14 68 14 82c0 19 -6 31 -30 48h244l-13 -56h-113z" />
    <glyph glyph-name="backslash" unicode="\" horiz-adv-x="528" 
d="M219 740l193 -785h-72l-193 785h72z" />
    <glyph glyph-name="bracketright" unicode="]" horiz-adv-x="352" 
d="M69 -90l159 736h-115l10 56h242c-45 -17 -54 -62 -74 -155l-121 -563c-3 -16 -13 -64 -13 -84c0 -13 3 -29 30 -46h-244l13 56h113z" />
    <glyph glyph-name="asciicircum" unicode="^" horiz-adv-x="523" 
d="M297 634l-141 -247h-93l178 315h112l178 -315h-93z" />
    <glyph glyph-name="underscore" unicode="_" horiz-adv-x="520" 
d="M-73 -72h525v-63h-525v63z" />
    <glyph glyph-name="grave" unicode="`" horiz-adv-x="523" 
d="M305 718l146 -167l-226 99z" />
    <glyph glyph-name="a" unicode="a" horiz-adv-x="555" 
d="M335 89l-76 -95c-26 -9 -47 -10 -59 -10c-83 0 -170 54 -170 190c0 179 135 317 316 317c15 0 34 -1 49 -3c36 -4 50 -10 65 -10c19 0 50 12 68 20l-71 -336c-2 -11 -11 -56 -11 -70c0 -18 9 -38 42 -38c16 0 30 3 43 10l-66 -70c-10 -2 -25 -4 -36 -4
c-33 0 -77 17 -77 74c0 17 5 35 8 51l61 287c-31 20 -62 26 -92 26c-126 0 -205 -107 -205 -240c0 -25 1 -129 101 -129c45 0 90 20 110 30z" />
    <glyph glyph-name="b" unicode="b" horiz-adv-x="553" 
d="M215 389l76 93c20 5 43 9 62 9c80 0 168 -55 168 -188c0 -99 -61 -319 -328 -319c-49 0 -112 6 -194 34c33 13 40 47 55 119l99 467c7 34 8 44 8 49c0 13 -7 32 -34 47h40c28 0 61 1 100 24l-139 -653c36 -20 67 -24 94 -24c122 0 205 105 205 247c0 39 -12 122 -100 122
c-37 0 -83 -14 -112 -27z" />
    <glyph glyph-name="c" unicode="c" horiz-adv-x="452" 
d="M414 119l-43 -107c-43 -20 -85 -28 -137 -28c-174 0 -208 108 -208 185c0 143 108 322 304 322c94 0 123 -51 123 -86c0 -31 -21 -66 -75 -66c-14 0 -26 3 -41 10c12 9 20 22 20 36c0 15 -13 43 -56 43c-106 0 -181 -116 -181 -235c0 -30 8 -134 126 -134
c63 0 124 26 168 60z" />
    <glyph glyph-name="d" unicode="d" horiz-adv-x="564" 
d="M337 89l-75 -95c-16 -6 -35 -10 -59 -10c-85 0 -172 55 -172 192c0 152 114 315 308 315c38 0 69 -7 99 -18l32 157c2 11 3 17 3 23c0 25 -25 42 -34 47h40c41 0 71 5 102 24l-121 -564c-7 -31 -11 -50 -11 -67c0 -15 5 -39 43 -39c11 0 26 2 41 8l-66 -69
c-18 -3 -30 -3 -34 -3c-37 0 -79 14 -79 69c0 19 4 37 8 54l59 282c-29 24 -59 33 -93 33c-98 0 -203 -85 -203 -237c0 -80 37 -132 101 -132c34 0 75 10 111 30z" />
    <glyph glyph-name="e" unicode="e" horiz-adv-x="464" 
d="M412 128l-29 -99c-86 -41 -148 -45 -182 -45c-67 0 -170 19 -170 163c0 158 109 344 302 344c103 0 131 -57 131 -97c0 -38 -17 -105 -127 -156c-93 -43 -187 -53 -216 -56c-1 -5 -1 -10 -1 -15c0 -38 17 -113 116 -113c39 0 112 9 176 74zM127 234c83 9 241 54 241 136
c0 35 -30 54 -66 54c-62 0 -153 -65 -175 -190z" />
    <glyph glyph-name="f" unicode="f" horiz-adv-x="347" 
d="M228 476h137c14 0 33 2 44 10l-19 -106c-14 23 -27 29 -55 29h-119l-50 -267c-41 -220 -89 -360 -222 -360c-27 0 -48 6 -66 13l51 62c11 -7 23 -10 31 -10c75 0 90 129 121 300l47 262h-55l67 67l12 52c12 53 42 180 226 180c39 0 69 -4 98 -12l-62 -80
c-16 17 -35 27 -66 27c-72 0 -96 -45 -111 -121z" />
    <glyph glyph-name="g" unicode="g" horiz-adv-x="533" 
d="M342 109l-78 -94c-19 -4 -44 -8 -62 -8c-83 0 -168 56 -168 183c0 179 146 301 319 301c31 0 52 -4 65 -6c16 -3 32 -6 47 -6c22 0 38 7 65 20l-101 -462c-40 -183 -109 -263 -268 -263c-123 0 -169 57 -169 100c0 30 24 65 72 65c15 0 31 -5 45 -12
c-16 -7 -23 -22 -23 -35c0 -25 32 -53 89 -53c119 0 149 106 176 235l68 326c-17 12 -44 26 -91 26c-119 0 -200 -102 -200 -220c0 -68 33 -124 103 -124c33 0 80 13 111 27z" />
    <glyph glyph-name="h" unicode="h" horiz-adv-x="576" 
d="M270 724l-69 -322c67 81 144 89 188 89c120 0 132 -65 132 -102c0 -24 -5 -40 -13 -77l-31 -140c-4 -20 -12 -53 -12 -76c0 -37 25 -42 42 -42c8 0 23 1 43 10l-65 -71c-11 -2 -21 -3 -35 -3c-58 0 -79 33 -79 73c0 19 6 52 8 60l39 181c8 35 9 50 9 57
c0 18 -5 65 -73 65c-95 0 -162 -73 -182 -164l-36 -163c-3 -16 -8 -39 -8 -52c0 -8 1 -28 26 -47h-166c40 22 50 53 60 99l114 535c6 27 1 46 -32 66h40c28 0 61 1 100 24z" />
    <glyph glyph-name="i" unicode="i" horiz-adv-x="248" 
d="M219 59l-66 -72c-11 -3 -19 -3 -30 -3c-27 0 -84 2 -84 75c0 23 5 44 9 61l61 287c2 10 4 19 4 26c0 21 -16 36 -34 42h47c23 0 49 2 91 25l-70 -332c-7 -31 -12 -58 -12 -78c0 -37 25 -42 41 -42c20 0 34 6 43 11zM211 689c19 0 48 -10 48 -56c0 -57 -33 -86 -65 -86
c-26 0 -49 15 -49 56c0 54 32 86 66 86z" />
    <glyph glyph-name="j" unicode="j" horiz-adv-x="239" 
d="M221 500l-108 -505c-25 -117 -54 -195 -175 -195c-16 0 -33 3 -43 5c90 26 114 110 136 213l77 364c2 9 8 40 8 51c0 20 -12 36 -33 42h48c25 0 56 4 90 25zM214 690c19 0 48 -10 48 -56c0 -57 -33 -86 -65 -86c-26 0 -49 15 -49 56c0 54 32 86 66 86z" />
    <glyph glyph-name="k" unicode="k" horiz-adv-x="512" 
d="M154 0h-166c49 28 53 61 61 99l106 495c3 12 9 47 9 57c0 22 -11 36 -34 49h41c26 0 60 1 99 24l-68 -321c64 82 127 88 164 88c75 0 118 -38 118 -109c0 -103 -89 -148 -178 -166l46 -76c70 -116 106 -134 129 -140c-50 -11 -64 -11 -84 -11c-51 0 -55 5 -114 98
l-102 161h10c91 0 199 14 199 110c0 41 -27 66 -64 66c-57 0 -129 -38 -165 -208l-25 -117c-2 -8 -8 -40 -8 -53c0 -7 1 -27 26 -46z" />
    <glyph glyph-name="l" unicode="l" horiz-adv-x="248" 
d="M265 724l-118 -556c-6 -30 -12 -58 -12 -78c0 -26 14 -41 41 -41c5 0 23 0 43 10l-66 -72c-11 -3 -19 -3 -30 -3c-27 0 -84 2 -84 75c0 23 5 44 9 61l102 474c3 12 9 47 9 57c0 22 -11 36 -34 49h41c26 0 60 1 99 24z" />
    <glyph glyph-name="m" unicode="m" horiz-adv-x="886" 
d="M155 0h-165c45 24 52 62 60 99l62 292c2 11 6 24 6 36c0 23 -11 41 -33 48h50c21 0 48 1 88 23l-22 -96c67 79 148 89 190 89c22 0 119 0 121 -97c31 41 90 97 190 97c69 0 126 -27 126 -100c0 -7 -1 -27 -16 -96l-26 -123c-3 -15 -11 -58 -11 -77c0 -10 2 -41 40 -41
c20 0 36 7 42 10l-65 -71c-10 -2 -23 -3 -34 -3c-58 0 -78 36 -78 72c0 28 5 49 8 61l41 191c4 16 8 31 8 46c0 50 -39 64 -71 64c-54 0 -102 -34 -125 -59c-43 -45 -52 -104 -65 -161l-23 -105c-4 -16 -8 -31 -8 -51c0 -9 1 -29 26 -48h-165c46 22 54 65 61 99l44 206
c2 12 9 43 9 62c0 28 -23 57 -73 57c-61 0 -108 -43 -125 -62c-38 -42 -48 -96 -62 -158l-23 -105c-3 -13 -8 -44 -8 -53c0 -23 17 -39 26 -46z" />
    <glyph glyph-name="n" unicode="n" horiz-adv-x="574" 
d="M153 0h-165c45 25 52 62 60 99l63 292c2 11 6 24 6 36c0 23 -11 41 -33 48h50c21 0 48 1 88 23l-22 -96c69 81 147 89 190 89c86 0 127 -39 127 -95c0 -21 -7 -59 -10 -74l-33 -150c-3 -15 -11 -58 -11 -77c0 -10 2 -41 40 -41c20 0 36 7 42 10l-65 -71
c-10 -2 -23 -3 -34 -3c-58 0 -78 36 -78 72c0 28 5 49 8 61l41 190c2 9 8 31 8 45c0 25 -8 66 -78 66c-63 0 -106 -36 -130 -66c-33 -42 -47 -93 -62 -165l-20 -94c-2 -10 -8 -43 -8 -53c0 -23 17 -39 26 -46z" />
    <glyph glyph-name="o" unicode="o" horiz-adv-x="534" 
d="M316 491c133 0 186 -94 186 -186c0 -106 -68 -321 -277 -321c-121 0 -194 71 -194 192c0 148 99 315 285 315zM293 428c-115 0 -168 -145 -168 -241c0 -97 51 -140 116 -140c86 0 167 89 167 243c0 116 -69 138 -115 138z" />
    <glyph glyph-name="p" unicode="p" horiz-adv-x="560" 
d="M168 -1l-22 94c14 -15 45 -42 104 -42c112 0 184 101 184 225c0 95 -43 145 -113 145c-47 0 -122 -26 -150 -152l-85 -386c-8 -35 -8 -48 -8 -53c0 -11 4 -29 26 -47h-165c45 27 52 60 60 100l109 508c2 11 6 24 6 36c0 23 -11 41 -33 48h50c21 0 48 1 88 23l-23 -95h3
c46 79 119 88 160 88c163 0 169 -148 169 -199c0 -210 -144 -308 -278 -308c-32 0 -58 6 -82 15z" />
    <glyph glyph-name="q" unicode="q" horiz-adv-x="545" 
d="M529 496l-132 -614c-7 -34 -8 -46 -8 -52c0 -11 4 -29 26 -47h-165c49 30 52 62 60 99l110 516c-41 26 -73 28 -95 28c-121 0 -202 -105 -202 -233c0 -99 52 -134 113 -134c14 0 49 3 104 29l-80 -97c-9 -2 -27 -7 -46 -7c-104 0 -185 65 -185 196c0 179 136 311 319 311
c25 0 34 -2 57 -7c32 -7 45 -8 54 -8c17 0 45 6 70 20z" />
    <glyph glyph-name="r" unicode="r" horiz-adv-x="350" 
d="M154 0h-166c45 24 52 62 60 99l62 292c2 11 6 24 6 36c0 23 -11 41 -33 48h50c21 0 48 1 88 23l-27 -116h3c47 69 95 106 176 106h17l-29 -115c-6 10 -16 22 -48 22c-75 0 -132 -90 -148 -164l-29 -132c-3 -13 -8 -44 -8 -53c0 -23 17 -39 26 -46z" />
    <glyph glyph-name="s" unicode="s" horiz-adv-x="442" 
d="M407 466l-19 -101c-37 56 -90 59 -119 59c-73 0 -95 -39 -95 -67c0 -49 58 -65 95 -80c63 -25 119 -57 119 -133c0 -85 -72 -160 -215 -160c-59 0 -116 14 -161 30l-15 110c41 -37 123 -73 180 -73c93 0 117 52 117 83c0 43 -44 58 -102 83c-52 23 -115 50 -115 127
c0 82 73 147 203 147c65 0 102 -12 127 -25z" />
    <glyph glyph-name="t" unicode="t" horiz-adv-x="325" 
d="M127 409h-79l11 49h10c105 0 136 100 150 198h48l-39 -181h98c15 0 28 2 43 10l-25 -120c-11 42 -35 44 -69 44h-61l-46 -216c-12 -58 -15 -75 -15 -88c0 -29 12 -56 73 -56c20 0 36 2 54 9l-41 -68c-13 -4 -25 -6 -48 -6c-42 0 -129 6 -129 97c0 26 6 50 11 75z" />
    <glyph glyph-name="u" unicode="u" horiz-adv-x="567" 
d="M537 64l-66 -71c-10 -2 -22 -3 -32 -3c-49 0 -84 33 -82 71l1 19c-47 -61 -114 -96 -189 -96c-96 0 -121 56 -121 103c0 30 12 83 14 93l46 211c2 11 6 25 6 36c0 23 -11 41 -33 48h50c21 0 48 1 88 23l-69 -315c-9 -43 -10 -57 -10 -64c0 -65 63 -66 78 -66
c94 0 153 87 173 179l35 159c2 11 6 25 6 36c0 23 -11 41 -33 48h50c21 0 48 1 88 23l-72 -333c-9 -41 -11 -56 -11 -67c0 -7 1 -44 39 -44c14 0 31 3 44 10z" />
    <glyph glyph-name="v" unicode="v" horiz-adv-x="518" 
d="M222 498l-68 -320c-3 -15 -9 -54 -9 -68c0 -12 2 -51 47 -51c91 0 225 136 225 272c0 19 -3 78 -70 78c-12 0 -31 0 -51 -20l-1 19c-3 51 41 83 97 83c21 0 111 -6 111 -119c0 -81 -40 -199 -136 -294c-53 -52 -116 -94 -199 -94c-80 0 -117 40 -117 105c0 25 8 54 16 92
l44 210c2 11 6 24 6 36c0 23 -11 41 -33 48h50c21 0 48 1 88 23z" />
    <glyph glyph-name="w" unicode="w" horiz-adv-x="826" 
d="M222 498l-69 -325c-3 -13 -8 -47 -8 -60c0 -28 23 -54 67 -54c34 0 83 18 115 52c37 39 53 105 58 130l32 150c2 11 6 24 6 36c0 23 -11 41 -33 48h50c21 0 48 1 88 23l-68 -311c-4 -18 -11 -56 -11 -77c0 -45 29 -51 48 -51c91 0 228 131 228 272c0 31 -10 78 -69 78
c-15 0 -34 -2 -52 -20c-7 48 19 100 95 100c57 0 112 -32 112 -117c0 -81 -41 -201 -137 -295c-66 -65 -128 -93 -203 -93c-17 0 -118 -1 -119 99c-70 -93 -150 -99 -181 -99c-67 0 -120 32 -120 98c0 17 3 42 15 99l45 210c2 11 6 24 6 36c0 23 -11 41 -33 48h50
c21 0 48 1 88 23z" />
    <glyph glyph-name="x" unicode="x" horiz-adv-x="520" 
d="M279 302l37 50c43 59 96 129 160 129c21 0 33 -5 48 -19l3 -81c-15 9 -29 11 -47 11c-17 0 -45 -1 -90 -53l-82 -94l75 -135c28 -50 45 -94 94 -114c-39 -12 -60 -12 -80 -12c-29 0 -47 -1 -82 69l-68 134l-53 -64c-64 -78 -100 -133 -158 -133c-27 0 -41 10 -51 21
l-4 81c12 -6 30 -12 47 -12c48 0 88 48 138 108l48 58l-60 116c-31 61 -45 95 -92 113h133z" />
    <glyph glyph-name="y" unicode="y" horiz-adv-x="552" 
d="M217 498l-70 -321c-5 -21 -7 -31 -7 -42c0 -42 37 -60 76 -60c51 0 101 33 124 58c24 26 45 77 54 121l28 137c2 12 6 24 6 36c0 23 -11 41 -33 48h50c21 0 48 1 88 23l-97 -451c-16 -76 -31 -136 -76 -191c-47 -56 -106 -82 -187 -82c-128 0 -171 57 -171 99
c0 30 16 66 66 66c23 0 37 -5 48 -11c-9 -4 -22 -13 -22 -32c0 -31 34 -57 89 -57c113 0 144 108 162 191l13 60c-47 -50 -114 -90 -189 -90c-81 0 -121 46 -121 94c0 14 2 35 19 114l39 183c2 11 6 24 6 36c0 23 -11 41 -33 48h50c21 0 48 1 88 23z" />
    <glyph glyph-name="z" unicode="z" horiz-adv-x="496" 
d="M513 475l-377 -397c8 1 23 2 33 2c12 0 21 -2 45 -4c56 -6 82 -6 93 -6c77 0 122 22 149 39l-65 -111c-34 -5 -56 -7 -79 -7c-31 0 -67 3 -102 7c-18 2 -35 4 -53 5c-19 1 -39 2 -58 2c-39 0 -81 -2 -131 -10l380 404h-95c-62 0 -107 1 -168 -48l67 124h361z" />
    <glyph glyph-name="braceleft" unicode="{" horiz-adv-x="352" 
d="M402 702l-11 -54h-23c-56 0 -66 -13 -87 -111l-29 -136c-14 -68 -21 -110 -84 -126c40 -17 41 -46 41 -57c0 -8 -1 -23 -11 -72l-34 -161c-4 -21 -8 -34 -8 -47c0 -12 0 -30 54 -30h22l-11 -54h-73c-67 0 -83 19 -83 48c0 15 3 30 9 56l47 221c2 8 6 30 6 40
c0 30 -23 40 -58 38l10 47c71 -4 77 37 90 97l45 213c14 66 7 88 125 88h63z" />
    <glyph glyph-name="bar" unicode="|" horiz-adv-x="506" 
d="M212 716h90v-891h-90v891z" />
    <glyph glyph-name="braceright" unicode="}" horiz-adv-x="364" 
d="M-35 -146l12 54h22c58 0 67 18 87 111l29 136c14 64 21 112 84 125c-39 19 -42 46 -42 65s6 36 12 64l35 161c5 22 8 33 8 44c0 24 -14 33 -54 33h-23l12 55h72c32 0 83 -1 83 -52c0 -14 -6 -44 -8 -53l-46 -212c-3 -13 -7 -28 -7 -43c0 -18 2 -44 53 -44h4l-10 -46
c-71 4 -77 -37 -90 -97l-45 -213c-16 -78 -14 -88 -125 -88h-63z" />
    <glyph glyph-name="asciitilde" unicode="~" horiz-adv-x="639" 
d="M198 532l-53 42c20 53 71 123 145 123c48 0 78 -20 119 -39s71 -33 98 -33c40 0 74 37 90 76l52 -43c-27 -73 -86 -125 -144 -125c-43 0 -72 20 -118 41c-44 21 -70 33 -101 33c-44 0 -76 -51 -88 -75z" />
    <glyph glyph-name="afii10051" unicode="&#x402;" horiz-adv-x="731" 
d="M269 633h-100c-56 0 -84 3 -129 -31l55 108c7 -3 27 -10 72 -10h393c41 0 78 6 83 7l-51 -108c-16 33 -37 34 -72 34h-157l-49 -225c60 21 140 39 194 39c68 0 167 -28 167 -172c0 -105 -35 -227 -85 -316c-37 -66 -104 -154 -214 -154c-21 0 -41 6 -62 14
c173 33 259 281 259 429c0 120 -85 123 -123 123c-44 0 -74 -4 -152 -38l-45 -209c-3 -16 -8 -48 -8 -69c0 -15 0 -39 27 -55h-189c45 16 61 51 77 127z" />
    <glyph glyph-name="afii10052" unicode="&#x403;" horiz-adv-x="454" 
d="M530 700l-21 -129c-19 56 -68 58 -131 58c-33 0 -74 -2 -103 -5l-112 -521c-4 -16 -8 -28 -8 -57c0 -14 1 -34 30 -46h-188c42 16 61 50 77 128l95 448c8 37 9 55 9 68c0 22 -4 41 -27 56h379zM469 903l45 -74l-284 -78z" />
    <glyph glyph-name="quotesinglbase" unicode="&#x201a;" horiz-adv-x="286" 
d="M1 -109l-18 23c37 8 85 28 113 76c-15 5 -36 17 -36 54c0 54 34 84 67 84c23 0 45 -15 45 -54c0 -61 -53 -122 -92 -150c-23 -17 -48 -28 -79 -33z" />
    <glyph glyph-name="afii10100" unicode="&#x453;" horiz-adv-x="445" 
d="M109 376l21 87c48 22 88 28 130 28c126 0 171 -46 171 -109c0 -92 -79 -123 -160 -150c-90 -29 -155 -47 -155 -112c0 -57 49 -71 97 -71c66 0 135 28 192 75l-29 -99c-84 -39 -161 -41 -181 -41c-30 0 -173 5 -173 132c0 101 86 124 175 152c73 24 140 44 140 107
c0 16 -10 51 -85 51c-31 0 -75 -7 -143 -50zM431 718l50 -68l-268 -99z" />
    <glyph glyph-name="quotedblbase" unicode="&#x201e;" horiz-adv-x="437" 
d="M-6 -109l-18 23c37 8 85 28 113 76c-15 5 -36 17 -36 54c0 54 34 84 67 84c23 0 45 -15 45 -54c0 -61 -53 -122 -92 -150c-23 -17 -48 -28 -79 -33zM165 -109l-18 23c37 8 85 28 113 76c-15 5 -36 17 -36 54c0 54 34 84 67 84c23 0 45 -15 45 -54
c0 -61 -53 -122 -92 -150c-23 -17 -48 -28 -79 -33z" />
    <glyph glyph-name="ellipsis" unicode="&#x2026;" horiz-adv-x="856" 
d="M114 133c18 0 46 -12 46 -56c0 -45 -23 -86 -64 -86c-28 0 -47 17 -47 57c0 55 32 85 65 85zM399 133c18 0 47 -10 47 -56c0 -47 -24 -86 -63 -86c-20 0 -48 9 -48 56c0 57 33 86 64 86zM685 133c18 0 47 -10 47 -56c0 -47 -24 -86 -63 -86c-26 0 -48 15 -48 57
c0 55 32 85 64 85z" />
    <glyph glyph-name="dagger" unicode="&#x2020;" 
d="M405 458h115c47 0 74 -3 101 34l-32 -152c-9 41 -43 38 -86 38h-115l-89 -418c-2 -10 -10 -52 -10 -66c0 -22 12 -36 28 -42h-167c53 19 51 60 63 114l89 412h-117c-42 0 -77 0 -96 -38l33 156c11 -43 38 -38 81 -38h116l33 151c3 15 6 29 6 48c0 10 -1 31 -26 43h164
c-47 -20 -49 -49 -58 -91z" />
    <glyph glyph-name="daggerdbl" unicode="&#x2021;" 
d="M406 458h131c31 0 58 -1 84 34l-32 -152c-8 39 -41 38 -71 38h-130l-43 -200h125c30 0 62 -5 91 34l-33 -152c-8 39 -41 38 -67 38h-133l-29 -138c-6 -28 -10 -41 -10 -67c0 -14 7 -32 28 -41h-167c54 24 50 53 63 114l28 132h-121c-45 0 -74 -4 -91 -38l33 156
c10 -39 37 -38 59 -38h138l43 200h-131c-30 0 -64 -2 -82 -38l34 156c11 -41 35 -38 57 -38h139l32 151c7 31 7 42 7 48c0 18 -7 30 -26 43h164c-41 -17 -47 -39 -58 -91z" />
    <glyph glyph-name="accent" horiz-adv-x="2" 
d="M-65 718l50 -68l-268 -99z" />
    <glyph glyph-name="perthousand" unicode="&#x2030;" horiz-adv-x="1049" 
d="M259 710c63 0 123 -35 123 -122c0 -109 -72 -205 -171 -205c-62 0 -125 35 -125 123c0 77 42 204 173 204zM251 660c-58 0 -93 -77 -93 -153c0 -59 35 -74 59 -74c57 0 93 78 93 157c0 58 -34 70 -59 70zM590 697h64l-492 -697h-63zM547 318c63 0 123 -35 123 -122
c0 -109 -72 -205 -171 -205c-62 0 -125 35 -125 123c0 77 42 204 173 204zM539 268c-58 0 -93 -77 -93 -153c0 -59 35 -74 59 -74c57 0 93 78 93 157c0 58 -34 70 -59 70zM884 318c63 0 123 -35 123 -122c0 -109 -72 -205 -171 -205c-62 0 -125 35 -125 123
c0 77 42 204 173 204zM876 268c-58 0 -93 -77 -93 -153c0 -59 35 -74 59 -74c57 0 93 78 93 157c0 58 -34 70 -59 70z" />
    <glyph glyph-name="afii10058" unicode="&#x409;" horiz-adv-x="962" 
d="M-50 -7v113c14 -17 33 -26 53 -26c116 0 224 373 224 535c0 23 -3 66 -49 85h527c-39 -13 -59 -44 -77 -127l-34 -157c37 9 74 14 114 14c209 0 219 -137 219 -185c0 -240 -240 -245 -296 -245h-269c29 11 57 33 77 128l104 496h-227l-19 -100
c-80 -419 -203 -540 -304 -540c-19 0 -33 5 -43 9zM581 348l-58 -266c22 -10 54 -21 109 -21c118 0 193 71 193 171c0 94 -69 131 -155 131c-34 0 -65 -7 -89 -15z" />
    <glyph glyph-name="guilsinglleft" unicode="&#x2039;" horiz-adv-x="241" 
d="M125 276l66 -187h-32l-125 190l187 177h45z" />
    <glyph glyph-name="afii10059" unicode="&#x40a;" horiz-adv-x="1066" 
d="M586 332h-373l-46 -208c-8 -37 -9 -58 -9 -68c0 -18 4 -39 27 -56h-188c36 14 59 40 77 127l95 449c6 27 9 44 9 68c0 17 -1 41 -27 56h190c-44 -16 -61 -51 -77 -127l-35 -165h373l37 168c4 19 9 45 9 67c0 27 -7 44 -27 57h188c-39 -13 -59 -44 -77 -127l-34 -157
c37 9 74 14 114 14c209 0 219 -137 219 -185c0 -240 -240 -245 -296 -245h-269c29 11 57 33 77 128zM685 348l-58 -266c22 -10 54 -21 109 -21c118 0 193 71 193 171c0 94 -69 131 -155 131c-34 0 -65 -7 -89 -15z" />
    <glyph glyph-name="afii10061" unicode="&#x40c;" horiz-adv-x="622" 
d="M185 0h-188c37 14 58 43 76 128l96 448c8 38 9 54 9 68c0 17 -1 41 -27 56h189c-40 -14 -58 -43 -76 -127l-97 -449c-6 -29 -9 -50 -9 -68s4 -39 27 -56zM335 382l119 -218c63 -115 106 -149 154 -164c-32 -7 -44 -8 -68 -8c-83 0 -106 9 -162 110l-149 269l277 267
c7 7 19 18 19 32s-14 25 -26 30h182zM530 903l45 -74l-284 -78z" />
    <glyph glyph-name="afii10060" unicode="&#x40b;" horiz-adv-x="740" 
d="M269 633h-100c-56 0 -84 3 -129 -31l55 108c7 -3 27 -10 72 -10h393c41 0 78 6 83 7l-51 -108c-16 33 -37 34 -72 34h-157l-49 -223c82 29 139 38 186 38c36 0 184 -2 184 -134c0 -19 -3 -37 -7 -56l-30 -134c-3 -13 -9 -42 -9 -67c0 -27 7 -44 27 -57h-188
c35 14 60 41 77 127l20 99c4 18 6 36 6 54c0 46 -8 92 -112 92c-55 0 -105 -11 -169 -36l-46 -212c-3 -16 -8 -48 -8 -69c0 -15 0 -39 27 -55h-189c45 16 61 51 77 127z" />
    <glyph glyph-name="afii10145" unicode="&#x40f;" horiz-adv-x="724" 
d="M159 76h337l107 500c5 25 9 47 9 68c0 18 -4 39 -27 56h188c-36 -14 -59 -40 -77 -127l-95 -449c-6 -27 -9 -44 -9 -68c0 -17 1 -41 27 -56h-249l-18 -85c-3 -16 -8 -47 -8 -69c0 -15 0 -39 27 -55h-189c44 16 61 51 77 127l17 82h-279c38 13 59 44 77 127l96 449
c3 16 8 55 8 69c0 32 -13 47 -26 55h189c-44 -16 -61 -51 -77 -127z" />
    <glyph glyph-name="afii10099" unicode="&#x452;" horiz-adv-x="564" 
d="M270 724l-26 -121h180l-9 -53h-182l-32 -148c67 81 144 89 188 89c62 0 149 -20 149 -156c0 -97 -33 -240 -84 -343c-40 -80 -113 -189 -249 -189c-16 0 -31 1 -47 4c120 18 203 166 240 274c23 66 46 166 46 237c0 89 -38 108 -90 108c-92 0 -161 -71 -182 -164
l-36 -163c-3 -16 -8 -39 -8 -52c0 -8 1 -28 26 -47h-166c40 22 50 53 60 99l96 451h-105l10 53h106l7 31c7 31 -3 49 -32 66h40c28 0 61 1 100 24z" />
    <glyph glyph-name="quoteleft" unicode="&#x2018;" horiz-adv-x="286" 
d="M310 712l18 -23c-36 -8 -84 -28 -112 -76c8 -3 36 -13 36 -55s-26 -83 -67 -83c-31 0 -45 23 -45 55c0 66 58 126 91 149c21 14 49 27 79 33z" />
    <glyph glyph-name="quoteright" unicode="&#x2019;" horiz-adv-x="286" 
d="M126 475l-18 23c37 8 85 28 113 76c-15 5 -36 17 -36 54c0 54 34 84 67 84c23 0 45 -15 45 -54c0 -61 -53 -122 -92 -150c-23 -17 -48 -28 -79 -33z" />
    <glyph glyph-name="quotedblleft" unicode="&#x201c;" horiz-adv-x="436" 
d="M297 712l18 -23c-36 -8 -84 -28 -112 -76c8 -3 36 -13 36 -55s-26 -83 -67 -83c-31 0 -45 23 -45 55c0 66 58 126 91 149c21 14 49 27 79 33zM467 712l18 -23c-36 -8 -84 -28 -112 -76c8 -3 36 -13 36 -55s-26 -83 -67 -83c-31 0 -45 23 -45 55c0 66 58 126 91 149
c21 14 49 27 79 33z" />
    <glyph glyph-name="quotedblright" unicode="&#x201d;" horiz-adv-x="443" 
d="M119 475l-18 23c37 8 85 28 113 76c-15 5 -36 17 -36 54c0 54 34 84 67 84c23 0 45 -15 45 -54c0 -61 -53 -122 -92 -150c-23 -17 -48 -28 -79 -33zM290 475l-18 23c37 8 85 28 113 76c-15 5 -36 17 -36 54c0 54 34 84 67 84c23 0 45 -15 45 -54c0 -61 -53 -122 -92 -150
c-23 -17 -48 -28 -79 -33z" />
    <glyph glyph-name="bullet" unicode="&#x2022;" horiz-adv-x="703" 
d="M229 357c0 81 67 148 148 148s148 -67 148 -148s-67 -148 -148 -148s-148 67 -148 148z" />
    <glyph glyph-name="endash" unicode="&#x2013;" horiz-adv-x="447" 
d="M96 346h212c48 0 72 2 118 20l-67 -85h-212c-34 0 -72 -3 -116 -21z" />
    <glyph glyph-name="emdash" unicode="&#x2014;" horiz-adv-x="956" 
d="M242 326h424c46 0 73 2 119 20l-67 -85h-425c-27 0 -66 -1 -117 -21z" />
    <glyph glyph-name="Accent" horiz-adv-x="2" 
d="M-92 903l45 -74l-284 -78z" />
    <glyph glyph-name="trademark" unicode="&#x2122;" horiz-adv-x="832" 
d="M268 657l-54 -252c-2 -8 -4 -21 -4 -27c0 -8 1 -18 17 -27h-115c27 4 31 27 37 56l54 250h-48c-28 0 -51 3 -85 -21l38 71c7 -4 17 -7 38 -7h218c14 0 30 2 44 5l-35 -69c-10 18 -19 21 -38 21h-67zM597 443l126 205c14 22 21 31 26 52h105c-18 -4 -27 -18 -30 -54
l-17 -239c-2 -23 -5 -49 31 -56h-126c29 4 29 34 31 55l21 225l-179 -289l-15 16c-17 18 -22 33 -25 47l-55 227l-72 -225c-2 -7 -7 -23 -7 -33c0 -3 1 -13 12 -23h-97c21 11 26 27 37 57l84 238c1 3 6 18 6 27c0 12 -10 20 -19 27h103c-1 -19 4 -31 8 -47z" />
    <glyph glyph-name="afii10106" unicode="&#x459;" horiz-adv-x="770" 
d="M499 496l-69 -312c-9 -39 -10 -58 -10 -68c0 -13 1 -70 81 -70c89 0 140 55 140 128c0 95 -82 94 -103 94c-22 0 -38 -1 -61 -7l58 67c17 4 36 7 56 7c88 0 144 -50 144 -144c0 -115 -104 -207 -262 -207c-86 0 -140 39 -140 117c0 21 6 57 11 79l53 241
c-136 1 -171 -87 -199 -170l-30 -88c-22 -65 -55 -179 -162 -179c-43 0 -69 28 -69 68c0 33 20 61 53 72c-1 -20 7 -43 32 -43c45 0 68 62 88 121l31 90c32 93 72 147 149 175c55 20 105 18 137 19c17 0 41 1 72 10z" />
    <glyph glyph-name="guilsinglright" unicode="&#x203a;" horiz-adv-x="241" 
d="M139 269l-66 187h32l125 -190l-187 -177h-45z" />
    <glyph glyph-name="afii10107" unicode="&#x45a;" horiz-adv-x="798" 
d="M153 0h-165c45 25 52 62 60 99l63 292c2 11 6 24 6 36c0 23 -11 41 -33 48h50c21 0 48 1 88 23l-47 -209h227l22 102c2 11 6 24 6 36c0 23 -11 41 -33 48h50c21 0 48 1 88 23l-71 -314c-4 -19 -10 -47 -10 -68c0 -50 38 -69 81 -69c89 0 140 55 140 127
c0 94 -83 93 -103 93c-21 0 -39 -1 -61 -6l58 67c17 4 36 7 56 7c88 0 144 -50 144 -144c0 -115 -104 -207 -262 -207c-86 0 -140 39 -140 117c0 21 6 57 11 79l9 42h-226l-26 -123c-2 -11 -8 -43 -8 -53c0 -23 17 -39 26 -46z" />
    <glyph glyph-name="afii10109" unicode="&#x45c;" horiz-adv-x="482" 
d="M147 0h-159c34 21 43 43 49 70l73 337c4 18 4 25 4 26c0 17 -12 35 -34 42h47c23 0 49 2 91 25l-91 -430c-4 -19 -9 -48 20 -70zM186 256l137 126c45 41 57 56 57 70s-5 24 -16 33h157l-241 -210l27 -49c69 -125 117 -183 173 -226l-37 -6c-113 -18 -151 69 -218 191z
M448 718l50 -68l-268 -99z" />
    <glyph glyph-name="afii10108" unicode="&#x45b;" horiz-adv-x="576" 
d="M270 724l-26 -121h180l-9 -53h-182l-32 -148c67 81 144 89 188 89c120 0 132 -65 132 -102c0 -24 -5 -40 -13 -77l-31 -140c-4 -20 -12 -53 -12 -76c0 -37 25 -42 42 -42c8 0 23 1 43 10l-65 -71c-11 -2 -21 -3 -35 -3c-58 0 -79 33 -79 73c0 19 6 52 8 60l39 181
c8 35 9 50 9 57c0 18 -5 65 -73 65c-95 0 -162 -73 -182 -164l-36 -163c-3 -16 -8 -39 -8 -52c0 -8 1 -28 26 -47h-166c40 22 50 53 60 99l96 451h-105l10 53h106l7 31c7 31 -3 49 -32 66h40c28 0 61 1 100 24z" />
    <glyph glyph-name="afii10193" unicode="&#x45f;" horiz-adv-x="567" 
d="M537 64l-66 -71c-10 -2 -22 -3 -32 -3c-49 0 -84 33 -82 71l1 19c-47 -61 -114 -96 -189 -96c-96 0 -121 56 -121 103c0 30 12 83 14 93l46 211c2 11 6 25 6 36c0 23 -11 41 -33 48h50c21 0 48 1 88 23l-69 -315c-9 -43 -10 -57 -10 -64c0 -65 63 -66 78 -66
c94 0 153 87 173 179l35 159c2 11 6 25 6 36c0 23 -11 41 -33 48h50c21 0 48 1 88 23l-72 -333c-9 -41 -11 -56 -11 -67c0 -7 1 -44 39 -44c14 0 31 3 44 10zM269 -9l25 -16c-38 -61 -25 -82 -27 -129c-2 -25 -8 -57 -98 -108l-33 17c46 26 45 65 47 100c3 53 20 85 86 136z
" />
    <glyph glyph-name="afii10062" unicode="&#x40e;" horiz-adv-x="573" 
d="M77 700h142l118 -423l207 309c17 25 28 55 28 77c0 23 -10 32 -19 37h148l-370 -558c-59 -88 -128 -158 -233 -158c-74 0 -99 45 -99 90c0 52 44 81 90 79c-8 -9 -12 -18 -12 -30c0 -33 23 -56 58 -56c56 0 94 48 122 88l27 39c-36 29 -42 59 -50 87l-102 345
c-7 23 -24 59 -55 74zM606 931l-32 -129c-33 -18 -90 -44 -178 -44c-86 0 -158 36 -158 101c0 43 30 72 70 72c26 0 45 -5 68 -19c-19 -7 -30 -22 -30 -38c0 -26 26 -53 82 -53c44 0 126 16 178 110z" />
    <glyph glyph-name="afii10110" unicode="&#x45e;" horiz-adv-x="552" 
d="M217 498l-70 -321c-5 -21 -7 -31 -7 -42c0 -42 37 -60 76 -60c51 0 101 33 124 58c24 26 45 77 54 121l28 137c2 12 6 24 6 36c0 23 -11 41 -33 48h50c21 0 48 1 88 23l-97 -451c-16 -76 -31 -136 -76 -191c-47 -56 -106 -82 -187 -82c-128 0 -171 57 -171 99
c0 30 16 66 66 66c23 0 37 -5 48 -11c-9 -4 -22 -13 -22 -32c0 -31 34 -57 89 -57c113 0 144 108 162 191l13 60c-47 -50 -114 -90 -189 -90c-81 0 -121 46 -121 94c0 14 2 35 19 114l39 183c2 11 6 24 6 36c0 23 -11 41 -33 48h50c21 0 48 1 88 23zM506 696l-29 -107
c-28 -16 -71 -35 -143 -35c-94 0 -140 42 -140 87c0 36 28 60 64 60c22 0 37 -6 57 -16c-15 -10 -25 -16 -25 -31c0 -21 21 -44 68 -44c46 0 101 19 148 86z" />
    <glyph glyph-name="afii10057" unicode="&#x408;" horiz-adv-x="289" 
d="M150 700h191c-43 -15 -62 -51 -78 -128l-117 -550c-42 -196 -78 -248 -219 -248c-19 0 -30 1 -44 4c122 46 147 147 176 283l110 514c9 41 9 61 9 69c0 24 -7 44 -28 56z" />
    <glyph glyph-name="currency" unicode="&#xa4;" horiz-adv-x="676" 
d="M584 339c0 -25 -3 -77 -46 -131l91 -91l-45 -45l-91 91c-49 -38 -98 -46 -134 -46s-85 8 -134 46l-91 -91l-45 45l91 91c-43 54 -46 106 -46 131s3 77 46 131l-91 91l45 45l91 -91c49 38 98 46 134 46s85 -8 134 -46l91 91l45 -45l-91 -91c43 -54 46 -106 46 -131z
M211 339c0 -81 67 -148 148 -148s148 67 148 148s-67 148 -148 148s-148 -67 -148 -148z" />
    <glyph glyph-name="afii10050" unicode="&#x490;" horiz-adv-x="480" 
d="M275 624l-112 -521c-4 -16 -8 -28 -8 -57c0 -14 1 -34 30 -46h-188c42 16 61 50 77 128l95 448c8 37 9 55 9 68c0 22 -4 41 -27 56h315c72 0 104 30 114 41l-30 -139c-35 18 -123 27 -172 27c-36 0 -76 -2 -103 -5z" />
    <glyph glyph-name="brokenbar" unicode="&#xa6;" horiz-adv-x="506" 
d="M212 716h90v-372h-90v372zM212 187h90v-372h-90v372z" />
    <glyph glyph-name="section" unicode="&#xa7;" horiz-adv-x="625" 
d="M593 676l-26 -111c-19 34 -61 81 -137 81c-77 0 -120 -47 -120 -99c0 -60 52 -83 128 -132c56 -36 102 -70 102 -139c0 -77 -54 -132 -116 -156c29 -38 31 -73 31 -91c0 -98 -77 -192 -234 -192c-52 0 -116 10 -181 53l21 110c11 -19 61 -93 171 -93c86 0 127 52 127 107
s-36 77 -117 125c-62 37 -132 77 -132 167c0 80 57 134 127 155c-21 31 -23 59 -23 75c0 95 72 180 223 180c42 0 94 -4 156 -40zM270 419c-33 -15 -67 -48 -67 -96c0 -51 39 -75 79 -102c19 -13 37 -23 63 -39c14 -9 26 -17 40 -26c53 30 59 75 59 96c0 45 -18 61 -96 112
c-29 19 -52 35 -78 55z" />
    <glyph glyph-name="afii10023" unicode="&#x401;" horiz-adv-x="536" 
d="M521 700l-22 -130c-12 58 -68 60 -128 60c-26 0 -64 -2 -96 -6l-45 -209h120c22 0 58 2 78 9l-29 -136c4 51 -54 51 -80 51h-105l-56 -256c47 -8 86 -10 142 -10c102 0 159 6 228 67l-80 -140h-451c42 16 61 50 77 128l95 448c3 12 9 43 9 68c0 26 -7 43 -27 56h370z
M298 887c10 0 44 -1 44 -49c0 -50 -31 -82 -64 -82c-16 0 -44 9 -44 49c0 34 16 82 64 82zM468 887c10 0 44 -1 44 -49c0 -50 -31 -82 -64 -82c-16 0 -44 9 -44 49c0 34 16 82 64 82z" />
    <glyph glyph-name="copyright" unicode="&#xa9;" horiz-adv-x="819" 
d="M457 716c192 0 345 -153 345 -346c0 -211 -177 -386 -388 -386c-196 0 -350 152 -350 346c0 212 179 386 393 386zM446 673c-179 0 -332 -155 -332 -341c0 -170 133 -305 302 -305c184 0 336 155 336 340c0 171 -133 306 -306 306zM595 553l-6 -101
c-25 43 -49 61 -104 61c-140 0 -179 -120 -179 -187c0 -68 37 -134 133 -134c33 0 98 5 154 64l-37 -95c-20 -9 -64 -25 -127 -25c-122 0 -197 70 -197 182c0 147 124 249 266 249c26 0 61 -4 97 -14z" />
    <glyph glyph-name="afii10053" unicode="&#x404;" horiz-adv-x="642" 
d="M630 694l-10 -139c-42 80 -116 85 -158 85c-147 0 -253 -92 -288 -226h267c13 0 25 1 36 3l-23 -105c-15 19 -36 26 -70 26h-225c-1 -12 -2 -24 -2 -36c0 -146 85 -235 220 -235c33 0 139 2 232 87l-49 -130c-93 -37 -166 -40 -199 -40c-188 0 -306 116 -306 304
c0 211 150 428 426 428c34 0 78 -1 149 -22z" />
    <glyph glyph-name="guillemotleft" unicode="&#xab;" horiz-adv-x="377" 
d="M125 276l67 -187h-31l-126 190l185 177h46zM261 276l67 -187h-31l-126 190l186 177h45z" />
    <glyph glyph-name="logicalnot" unicode="&#xac;" 
d="M439 10v206h-358v69h436v-275h-78z" />
    <glyph glyph-name="hyphen" unicode="-" horiz-adv-x="362" 
d="M96 296h125c47 0 74 2 120 20l-67 -85h-126c-36 0 -73 -3 -117 -21z" />
    <glyph glyph-name="hyphen" unicode="&#xad;" horiz-adv-x="362" 
d="M96 296h125c47 0 74 2 120 20l-67 -85h-126c-36 0 -73 -3 -117 -21z" />
    <glyph glyph-name="registered" unicode="&#xae;" horiz-adv-x="819" 
d="M457 716c192 0 345 -153 345 -346c0 -211 -177 -386 -388 -386c-196 0 -350 152 -350 346c0 212 179 386 393 386zM446 673c-179 0 -332 -155 -332 -341c0 -170 133 -305 302 -305c184 0 336 155 336 340c0 171 -133 306 -306 306zM424 521l-81 -305
c-5 -20 -6 -30 -6 -35c0 -9 3 -19 24 -30h-143c33 4 45 29 55 67l76 287c2 8 6 27 6 34c0 14 -10 23 -23 30h142c48 0 132 -2 132 -87c0 -69 -60 -117 -135 -123l46 -98c34 -71 67 -101 112 -107c-39 -7 -56 -8 -66 -8c-48 0 -80 22 -132 158l-32 83c8 -2 15 -3 23 -3
c55 0 110 34 110 87s-57 53 -77 53c-11 0 -20 -1 -31 -3z" />
    <glyph glyph-name="afii10056" unicode="&#x407;" horiz-adv-x="292" 
d="M185 0h-188c37 14 58 43 76 128l96 448c8 38 9 54 9 68c0 17 -1 41 -27 56h189c-40 -14 -58 -43 -76 -127l-97 -449c-6 -29 -9 -50 -9 -68s4 -39 27 -56zM182 886c10 0 44 -1 44 -49c0 -50 -31 -82 -64 -82c-16 0 -44 9 -44 49c0 34 16 82 64 82zM352 886
c10 0 44 -1 44 -49c0 -50 -31 -82 -64 -82c-16 0 -44 9 -44 49c0 34 16 82 64 82z" />
    <glyph glyph-name="degree" unicode="&#xb0;" horiz-adv-x="598" 
d="M200 564c0 81 67 148 148 148s148 -67 148 -148s-67 -148 -148 -148s-148 67 -148 148zM256 564c0 -51 41 -92 92 -92s92 41 92 92s-41 92 -92 92s-92 -41 -92 -92z" />
    <glyph glyph-name="plusminus" unicode="&#xb1;" 
d="M109 39v70h466v-70h-466zM377 167h-70v192h-198v70h198v202h70v-202h198v-70h-198v-192z" />
    <glyph glyph-name="afii10055" unicode="&#x406;" horiz-adv-x="291" 
d="M185 0h-188c37 14 58 43 76 128l96 448c8 38 9 54 9 68c0 17 -1 41 -27 56h189c-40 -14 -58 -43 -76 -127l-97 -449c-6 -29 -9 -50 -9 -68s4 -39 27 -56z" />
    <glyph glyph-name="afii10103" unicode="&#x456;" horiz-adv-x="248" 
d="M219 59l-66 -72c-11 -3 -19 -3 -30 -3c-27 0 -84 2 -84 75c0 23 5 44 9 61l61 287c2 10 4 19 4 26c0 21 -16 36 -34 42h47c23 0 49 2 91 25l-70 -332c-7 -31 -12 -58 -12 -78c0 -37 25 -42 41 -42c20 0 34 6 43 11zM211 689c19 0 48 -10 48 -56c0 -57 -33 -86 -65 -86
c-26 0 -49 15 -49 56c0 54 32 86 66 86z" />
    <glyph glyph-name="afii10098" unicode="&#x491;" horiz-adv-x="320" 
d="M385 498l-23 -104c-9 8 -18 11 -52 11h-124l-50 -233c-3 -14 -11 -59 -11 -77c0 -26 14 -40 40 -40c8 0 21 1 42 9l-65 -71c-10 -2 -23 -3 -34 -3c-58 0 -78 36 -78 72c0 28 5 49 8 61l58 268c2 11 6 24 6 36c0 23 -11 41 -33 48h256c14 0 39 0 60 23z" />
    <glyph glyph-name="mu" unicode="&#xb5;" horiz-adv-x="538" 
d="M508 60l-62 -68c-6 -1 -18 -3 -30 -3c-43 0 -81 27 -79 68l1 18c-34 -49 -91 -91 -164 -91c-45 0 -66 18 -78 38l-38 -232h-85l105 490l28 143c5 27 -5 42 -30 52h34c34 0 65 3 98 24l-72 -335c-4 -21 -8 -34 -8 -47c0 -14 0 -63 76 -63c91 0 145 71 165 166l41 199
c6 27 -3 45 -30 56h35c38 0 67 5 97 24l-76 -353c-5 -21 -8 -35 -8 -50c0 -29 15 -44 38 -44c15 0 37 7 42 8z" />
    <glyph glyph-name="mu" unicode="&#x3bc;" horiz-adv-x="538" 
d="M508 60l-62 -68c-6 -1 -18 -3 -30 -3c-43 0 -81 27 -79 68l1 18c-34 -49 -91 -91 -164 -91c-45 0 -66 18 -78 38l-38 -232h-85l105 490l28 143c5 27 -5 42 -30 52h34c34 0 65 3 98 24l-72 -335c-4 -21 -8 -34 -8 -47c0 -14 0 -63 76 -63c91 0 145 71 165 166l41 199
c6 27 -3 45 -30 56h35c38 0 67 5 97 24l-76 -353c-5 -21 -8 -35 -8 -50c0 -29 15 -44 38 -44c15 0 37 7 42 8z" />
    <glyph glyph-name="paragraph" unicode="&#xb6;" horiz-adv-x="618" 
d="M431 -177h-77l177 834h-42l-178 -834h-74l177 834c-127 -4 -167 -164 -167 -244c0 -51 21 -81 76 -106c-13 -4 -26 -6 -47 -6c-107 0 -171 62 -171 155c0 68 21 244 305 244h253c-54 -32 -63 -79 -76 -139z" />
    <glyph glyph-name="periodcentered" unicode="&#xb7;" horiz-adv-x="233" 
d="M128 322c18 0 46 -12 46 -56c0 -55 -32 -86 -64 -86c-19 0 -47 10 -47 58c0 61 38 84 65 84z" />
    <glyph glyph-name="periodcentered" unicode="&#x2219;" horiz-adv-x="233" 
d="M128 322c18 0 46 -12 46 -56c0 -55 -32 -86 -64 -86c-19 0 -47 10 -47 58c0 61 38 84 65 84z" />
    <glyph glyph-name="afii10071" unicode="&#x451;" horiz-adv-x="465" 
d="M412 128l-29 -99c-43 -20 -109 -45 -178 -45c-113 0 -174 58 -174 163c0 158 109 344 302 344c103 0 131 -57 131 -97c0 -93 -116 -192 -343 -212c-1 -5 -1 -10 -1 -15c0 -38 17 -113 116 -113c39 0 112 9 176 74zM127 234c118 13 241 66 241 136c0 34 -29 55 -66 55
c-63 0 -152 -64 -175 -191zM266 697c10 0 44 -1 44 -49c0 -50 -31 -82 -64 -82c-16 0 -44 9 -44 49c0 34 16 82 64 82zM437 697c10 0 44 -1 44 -49c0 -50 -31 -82 -64 -82c-16 0 -44 9 -44 49c0 34 16 82 64 82z" />
    <glyph glyph-name="afii61352" unicode="&#x2116;" horiz-adv-x="1297" 
d="M598 133l58 286c29 144 74 309 204 309c21 0 40 -7 57 -17l-24 -115c-6 15 -19 31 -45 31c-72 0 -102 -133 -120 -218l-61 -285c-3 -16 -8 -55 -8 -69c0 -32 13 -47 26 -55h-102c-41 38 -60 78 -65 90l-209 489l-58 -286c-29 -144 -74 -309 -204 -309c-21 0 -40 7 -57 17
l24 115c6 -15 19 -31 45 -31c71 0 102 133 120 218l49 235c4 21 13 53 13 86c0 15 -3 46 -38 76h147c12 -46 28 -63 41 -94zM1004 225c-100 0 -146 75 -146 144c0 110 101 225 224 225c99 0 145 -74 145 -144c0 -110 -102 -225 -223 -225zM1015 287c108 0 135 115 135 160
c0 55 -34 85 -83 85c-103 0 -132 -116 -132 -159c0 -47 26 -86 80 -86zM803 90l15 66h341l-15 -66h-341z" />
    <glyph glyph-name="afii10101" unicode="&#x454;" horiz-adv-x="452" 
d="M414 119l-43 -107c-43 -20 -85 -28 -137 -28c-174 0 -208 108 -208 185c0 143 108 322 304 322c94 0 123 -51 123 -86c0 -31 -21 -66 -75 -66c-14 0 -26 3 -41 10c9 7 20 20 20 36c0 21 -19 41 -56 41c-73 0 -141 -60 -166 -142h151c12 0 24 1 37 3l-20 -92
c-15 19 -35 26 -71 26h-109c-2 -9 -3 -19 -3 -28c0 -70 37 -134 126 -134c63 0 124 26 168 60z" />
    <glyph glyph-name="guillemotright" unicode="&#xbb;" horiz-adv-x="377" 
d="M139 269l-67 187h31l126 -190l-186 -177h-45zM275 269l-67 187h31l126 -190l-185 -177h-46z" />
    <glyph glyph-name="afii10105" unicode="&#x458;" horiz-adv-x="239" 
d="M221 500l-108 -505c-25 -117 -54 -195 -175 -195c-16 0 -33 3 -43 5c90 26 114 110 136 213l77 364c2 9 8 40 8 51c0 20 -12 36 -33 42h48c25 0 56 4 90 25zM214 690c19 0 48 -10 48 -56c0 -57 -33 -86 -65 -86c-26 0 -49 15 -49 56c0 54 32 86 66 86z" />
    <glyph glyph-name="afii10054" unicode="&#x405;" horiz-adv-x="548" 
d="M527 690l-14 -139c-30 71 -102 90 -155 90c-78 0 -138 -39 -138 -103c0 -67 65 -104 145 -154c103 -65 136 -107 136 -182c0 -117 -91 -218 -293 -218c-41 0 -95 3 -167 31l-27 144c68 -75 155 -100 223 -100c93 0 162 47 162 130c0 55 -28 81 -136 146
c-61 37 -145 82 -145 183c0 102 80 198 252 198c42 0 89 -4 157 -26z" />
    <glyph glyph-name="afii10102" unicode="&#x455;" horiz-adv-x="442" 
d="M407 466l-19 -101c-37 56 -90 59 -119 59c-73 0 -95 -39 -95 -67c0 -49 58 -65 95 -80c63 -25 119 -57 119 -133c0 -85 -72 -160 -215 -160c-59 0 -116 14 -161 30l-15 110c41 -37 123 -73 180 -73c93 0 117 52 117 83c0 43 -44 58 -102 83c-52 23 -115 50 -115 127
c0 82 73 147 203 147c65 0 102 -12 127 -25z" />
    <glyph glyph-name="afii10104" unicode="&#x457;" horiz-adv-x="249" 
d="M219 59l-66 -72c-11 -3 -19 -3 -30 -3c-27 0 -84 2 -84 75c0 23 5 44 9 61l61 287c2 10 4 19 4 26c0 21 -16 36 -34 42h47c23 0 49 2 91 25l-70 -332c-7 -31 -12 -58 -12 -78c0 -37 25 -42 41 -42c20 0 34 6 43 11zM126 697c10 0 44 -1 44 -49c0 -50 -31 -82 -64 -82
c-16 0 -44 9 -44 49c0 34 16 82 64 82zM266 697c10 0 44 -1 44 -49c0 -50 -31 -82 -64 -82c-16 0 -44 9 -44 49c0 34 16 82 64 82z" />
    <glyph glyph-name="afii10017" unicode="&#x410;" horiz-adv-x="686" 
d="M485 258h-273l-87 -147c-13 -22 -38 -60 -38 -80c0 -16 15 -27 27 -31h-180c54 18 65 55 85 87l309 490c25 39 40 65 40 86c0 27 -26 36 -31 37h164l101 -568c11 -64 19 -115 66 -132h-182c33 14 35 38 35 49s-2 23 -8 54zM473 325l-49 286l-170 -286h219z" />
    <glyph glyph-name="afii10018" unicode="&#x411;" horiz-adv-x="596" 
d="M561 700l-16 -129c-42 58 -82 58 -167 58c-38 0 -68 -2 -103 -5l-46 -214c41 14 80 20 121 20c138 0 207 -68 207 -185c0 -240 -241 -245 -296 -245h-264c29 11 57 33 77 128l95 448c8 37 9 55 9 68c0 22 -4 41 -27 56h410zM216 348l-58 -266c22 -11 51 -21 104 -21
c119 0 193 72 193 171c0 95 -67 131 -150 131c-38 0 -71 -9 -89 -15z" />
    <glyph glyph-name="afii10019" unicode="&#x412;" horiz-adv-x="612" 
d="M151 700h193c80 0 215 -2 215 -146c0 -97 -68 -172 -164 -181v-3c91 0 164 -62 164 -150c0 -79 -46 -147 -110 -184s-128 -36 -199 -36h-253c29 11 57 33 77 128l95 448c8 38 9 54 9 68c0 17 -1 41 -27 56zM277 633l-49 -226c23 -3 43 -4 65 -4c48 0 164 7 164 135
c0 51 -31 99 -129 99c-20 0 -39 -2 -51 -4zM213 334l-55 -252c28 -14 60 -21 109 -21c128 0 190 71 190 156c0 113 -130 119 -194 119c-18 0 -37 -1 -50 -2z" />
    <glyph glyph-name="afii10020" unicode="&#x413;" horiz-adv-x="454" 
d="M530 700l-21 -129c-19 56 -68 58 -131 58c-33 0 -74 -2 -103 -5l-112 -521c-4 -16 -8 -28 -8 -57c0 -14 1 -34 30 -46h-188c42 16 61 50 77 128l95 448c8 37 9 55 9 68c0 22 -4 41 -27 56h379z" />
    <glyph glyph-name="afii10021" unicode="&#x414;" horiz-adv-x="651" 
d="M194 700h507c-40 -14 -58 -43 -76 -127l-106 -497h96l-49 -226l-65 -33c3 26 7 65 7 95c0 82 -41 88 -72 88h-362c-38 0 -102 -20 -140 -183l-54 33l50 226h76c164 213 230 448 230 539c0 22 -2 59 -42 85zM539 624h-215c-43 -216 -116 -389 -224 -548h324z" />
    <glyph glyph-name="afii10022" unicode="&#x415;" horiz-adv-x="536" 
d="M521 700l-22 -130c-12 58 -68 60 -128 60c-26 0 -64 -2 -96 -6l-45 -209h120c22 0 58 2 78 9l-29 -136c4 51 -54 51 -80 51h-105l-56 -256c47 -8 86 -10 142 -10c102 0 159 6 228 67l-80 -140h-451c42 16 61 50 77 128l95 448c3 12 9 43 9 68c0 26 -7 43 -27 56h370z" />
    <glyph glyph-name="afii10024" unicode="&#x416;" horiz-adv-x="966" 
d="M534 0h-188c37 14 58 43 76 128l96 448c8 38 9 54 9 68c0 17 -1 41 -27 56h189c-40 -14 -58 -43 -76 -127l-97 -449c-6 -29 -9 -50 -9 -68s4 -39 27 -56zM363 390l-168 246c-27 40 -53 58 -62 64h185c-20 -9 -33 -24 -33 -39c0 -10 5 -17 9 -24l164 -267l-240 -268
c-71 -79 -120 -110 -211 -110c-37 0 -60 5 -72 8c54 16 109 48 217 164zM684 382l119 -218c63 -115 106 -149 154 -164c-32 -7 -44 -8 -68 -8c-83 0 -106 9 -162 110l-149 269l277 267c7 7 19 18 19 32s-14 25 -26 30h182z" />
    <glyph glyph-name="afii10025" unicode="&#x417;" horiz-adv-x="562" 
d="M155 333l22 87c27 -4 61 -5 77 -5c115 0 171 50 171 119c0 54 -30 106 -123 106c-48 0 -113 -11 -167 -65l36 120c51 13 107 21 160 21c184 0 196 -118 196 -163c0 -105 -79 -173 -175 -175v-4c61 -10 139 -53 139 -155s-72 -235 -306 -235c-153 0 -207 70 -207 129
c0 45 31 80 72 80c18 0 41 -7 56 -16c-21 -8 -30 -26 -30 -43c0 -28 27 -74 120 -74c124 0 193 58 193 152c0 117 -104 130 -175 130c-29 0 -43 -1 -59 -9z" />
    <glyph glyph-name="afii10026" unicode="&#x418;" horiz-adv-x="761" 
d="M169 131l456 530c15 17 23 27 44 39h141c-38 -13 -59 -44 -77 -127l-96 -449c-3 -16 -8 -55 -8 -69c0 -32 13 -47 26 -55h-189c40 14 59 44 77 127l94 442l-457 -530c-15 -17 -24 -27 -43 -39h-140c36 14 59 40 77 127l95 449c6 27 9 44 9 68c0 17 -1 41 -27 56h190
c-40 -14 -60 -46 -77 -127z" />
    <glyph glyph-name="afii10027" unicode="&#x419;" horiz-adv-x="761" 
d="M169 131l456 530c15 17 23 27 44 39h141c-38 -13 -59 -44 -77 -127l-96 -449c-3 -16 -8 -55 -8 -69c0 -32 13 -47 26 -55h-189c40 14 59 44 77 127l94 442l-457 -530c-15 -17 -24 -27 -43 -39h-140c36 14 59 40 77 127l95 449c6 27 9 44 9 68c0 17 -1 41 -27 56h190
c-40 -14 -60 -46 -77 -127zM690 931l-32 -129c-33 -18 -90 -44 -178 -44c-86 0 -158 36 -158 101c0 43 30 72 70 72c26 0 45 -5 68 -19c-19 -7 -30 -22 -30 -38c0 -26 26 -53 82 -53c44 0 126 16 178 110z" />
    <glyph glyph-name="afii10028" unicode="&#x41a;" horiz-adv-x="622" 
d="M185 0h-188c37 14 58 43 76 128l96 448c8 38 9 54 9 68c0 17 -1 41 -27 56h189c-40 -14 -58 -43 -76 -127l-97 -449c-6 -29 -9 -50 -9 -68s4 -39 27 -56zM335 382l119 -218c63 -115 106 -149 154 -164c-32 -7 -44 -8 -68 -8c-83 0 -106 9 -162 110l-149 269l277 267
c7 7 19 18 19 32s-14 25 -26 30h182z" />
    <glyph glyph-name="afii10029" unicode="&#x41b;" horiz-adv-x="656" 
d="M-50 -7v123c11 -17 30 -31 53 -31c130 0 225 419 225 530c0 22 -2 67 -50 85h527c-38 -13 -59 -44 -77 -127l-96 -449c-3 -16 -8 -55 -8 -69c0 -32 13 -47 26 -55h-189c44 16 61 51 77 127l105 497h-224l-22 -101c-48 -221 -131 -539 -304 -539c-19 0 -33 5 -43 9z" />
    <glyph glyph-name="afii10030" unicode="&#x41c;" horiz-adv-x="949" 
d="M466 153l258 443c27 46 41 72 51 104h180c-62 -18 -57 -61 -62 -125l-36 -474c-6 -84 28 -98 39 -101h-195c53 14 57 69 62 128l45 482l-363 -619l-20 22c-9 10 -31 35 -43 96l-102 501l-156 -481c-19 -59 -20 -76 -20 -84c0 -10 3 -30 24 -45h-169c52 16 64 61 87 129
l153 446c5 14 17 55 17 77c0 12 -3 32 -30 48h170c-1 -25 3 -47 13 -94z" />
    <glyph glyph-name="afii10031" unicode="&#x41d;" horiz-adv-x="760" 
d="M586 332h-373l-46 -208c-8 -37 -9 -58 -9 -68c0 -18 4 -39 27 -56h-188c36 14 59 40 77 127l95 449c6 27 9 44 9 68c0 17 -1 41 -27 56h190c-44 -16 -61 -51 -77 -127l-35 -165h373l37 168c4 19 9 45 9 67c0 27 -7 44 -27 57h188c-38 -13 -59 -44 -77 -127l-96 -449
c-3 -16 -8 -55 -8 -69c0 -32 13 -47 26 -55h-189c45 16 61 51 77 127z" />
    <glyph glyph-name="afii10032" unicode="&#x41e;" horiz-adv-x="730" 
d="M435 716c261 0 270 -239 270 -299c0 -234 -147 -433 -377 -433c-171 0 -273 115 -273 298c0 223 144 434 380 434zM418 651c-134 0 -261 -140 -261 -370c0 -172 88 -232 186 -232c174 0 260 197 260 372c0 189 -113 230 -185 230z" />
    <glyph glyph-name="afii10033" unicode="&#x41f;" horiz-adv-x="714" 
d="M601 624h-327l-107 -500c-5 -25 -9 -47 -9 -68c0 -18 4 -39 27 -56h-188c36 14 59 40 77 127l95 449c6 27 9 44 9 68c0 17 -1 41 -27 56h612c-38 -13 -59 -44 -77 -127l-96 -449c-3 -16 -8 -55 -8 -69c0 -32 13 -47 26 -55h-189c44 16 61 51 77 127z" />
    <glyph glyph-name="afii10034" unicode="&#x420;" horiz-adv-x="555" 
d="M151 700h203c86 0 236 -7 236 -156c0 -112 -82 -225 -241 -225c-68 0 -96 18 -112 39c16 -3 38 -5 56 -5c128 0 195 90 195 174c0 109 -108 111 -147 111c-23 0 -42 -1 -64 -4l-110 -510c-6 -29 -9 -50 -9 -68s4 -39 27 -56h-188c37 14 58 43 76 127l96 449
c8 37 9 55 9 68c0 22 -4 41 -27 56z" />
    <glyph glyph-name="afii10035" unicode="&#x421;" horiz-adv-x="642" 
d="M630 694l-10 -139c-42 80 -116 85 -158 85c-218 0 -305 -185 -305 -338c0 -146 86 -235 220 -235c33 0 139 2 232 87l-49 -130c-93 -37 -166 -40 -199 -40c-188 0 -306 116 -306 304c0 211 150 428 426 428c34 0 78 -1 149 -22z" />
    <glyph glyph-name="afii10036" unicode="&#x422;" horiz-adv-x="550" 
d="M307 633h-115c-56 0 -84 3 -129 -31l55 108c7 -3 27 -10 72 -10h388c41 0 78 6 83 7l-51 -108c-16 33 -37 34 -72 34h-137l-110 -509c-3 -16 -8 -48 -8 -69c0 -15 0 -39 27 -55h-189c45 16 61 51 77 127z" />
    <glyph glyph-name="afii10037" unicode="&#x423;" horiz-adv-x="574" 
d="M78 700h142l118 -423l207 309c17 25 28 55 28 77c0 23 -10 32 -19 37h148l-370 -558c-59 -88 -128 -158 -233 -158c-74 0 -99 45 -99 90c0 52 44 81 90 79c-8 -9 -12 -18 -12 -30c0 -33 23 -56 58 -56c56 0 94 48 122 88l27 39c-36 29 -42 59 -50 87l-102 345
c-7 23 -24 59 -55 74z" />
    <glyph glyph-name="afii10038" unicode="&#x424;" horiz-adv-x="825" 
d="M417 740h187c-51 -32 -62 -68 -65 -90c63 2 266 -9 266 -219c0 -235 -209 -327 -383 -328l-1 -10c-2 -24 -15 -59 26 -93h-187c22 14 60 45 65 93l1 10c-63 -2 -266 10 -266 218c0 236 209 328 383 329c11 32 3 66 -26 90zM525 585l-90 -417c151 -3 268 102 268 249
c0 159 -132 170 -178 168zM340 168l90 417c-151 3 -268 -102 -268 -249c0 -159 132 -170 178 -168z" />
    <glyph glyph-name="afii10039" unicode="&#x425;" horiz-adv-x="638" 
d="M373 439l141 150c25 27 57 62 57 84c0 9 -8 21 -13 27h165l-321 -323l93 -230c29 -72 51 -130 113 -147c-37 -7 -58 -11 -86 -11c-61 0 -79 22 -132 163l-64 170l-222 -240c-15 -17 -30 -31 -30 -51c0 -4 1 -20 17 -31h-168l373 382l-59 153c-32 82 -46 128 -94 165h138
c6 -23 12 -43 20 -64z" />
    <glyph glyph-name="afii10040" unicode="&#x426;" horiz-adv-x="724" 
d="M159 76h337l107 500c5 25 9 47 9 68c0 18 -4 39 -27 56h188c-42 -16 -61 -51 -77 -127l-106 -497h96l-49 -226l-65 -33c3 26 7 65 7 95c0 82 -41 88 -72 88h-510c38 13 59 44 77 127l96 449c3 16 8 55 8 69c0 32 -13 47 -26 55h189c-44 -16 -61 -51 -77 -127z" />
    <glyph glyph-name="afii10041" unicode="&#x427;" horiz-adv-x="649" 
d="M510 700h188c-38 -13 -59 -44 -77 -127l-96 -449c-3 -16 -8 -55 -8 -69c0 -32 13 -47 26 -55h-189c44 16 61 51 77 127l43 201c-69 -30 -155 -38 -196 -38c-173 0 -183 103 -183 134c0 19 2 37 6 56l23 96c6 25 9 50 9 67c0 27 -7 44 -27 57h188
c-42 -16 -61 -51 -77 -127l-13 -61c-4 -18 -7 -36 -7 -54c0 -59 20 -92 113 -92c63 0 121 12 180 33l38 177c4 20 9 45 9 67c0 27 -7 44 -27 57z" />
    <glyph glyph-name="afii10042" unicode="&#x428;" horiz-adv-x="978" 
d="M159 76h248l107 500c8 38 9 54 9 68c0 17 -1 41 -27 56h189c-40 -14 -58 -43 -76 -127l-107 -497h248l107 500c5 25 9 47 9 68c0 18 -4 39 -27 56h188c-36 -14 -59 -40 -77 -127l-95 -449c-6 -27 -9 -44 -9 -68c0 -17 1 -41 27 -56h-876c38 13 59 44 77 127l96 449
c3 16 8 55 8 69c0 32 -13 47 -26 55h189c-44 -16 -61 -51 -77 -127z" />
    <glyph glyph-name="afii10043" unicode="&#x429;" horiz-adv-x="978" 
d="M159 76h248l107 500c8 38 9 54 9 68c0 17 -1 41 -27 56h189c-40 -14 -58 -43 -76 -127l-107 -497h248l107 500c5 25 9 47 9 68c0 18 -4 39 -27 56h188c-36 -14 -59 -40 -77 -127l-105 -497h96l-49 -226l-65 -33c3 26 7 65 7 95c0 82 -41 88 -72 88h-765
c38 13 59 44 77 127l96 449c3 16 8 55 8 69c0 32 -13 47 -26 55h189c-44 -16 -61 -51 -77 -127z" />
    <glyph glyph-name="afii10044" unicode="&#x42a;" horiz-adv-x="704" 
d="M371 573l-35 -163c43 14 83 20 123 20c117 0 210 -51 210 -185c0 -240 -240 -245 -296 -245h-269c29 11 57 33 77 128l108 505h-112c-56 0 -84 3 -129 -31l55 108c7 -3 27 -10 72 -10h273c-45 -16 -61 -51 -77 -127zM323 348l-58 -266c22 -10 54 -21 109 -21
c118 0 193 71 193 171c0 94 -69 131 -155 131c-34 0 -65 -7 -89 -15z" />
    <glyph glyph-name="afii10045" unicode="&#x42b;" horiz-adv-x="850" 
d="M264 573l-35 -162c27 8 68 19 117 19c114 0 207 -51 207 -185c0 -233 -210 -245 -308 -245h-248c29 11 57 33 77 128l95 448c6 27 9 44 9 68c0 17 -1 41 -27 56h190c-45 -16 -61 -51 -77 -127zM216 348l-58 -266c21 -11 51 -21 104 -21c114 0 189 72 189 171
c0 94 -69 131 -151 131c-31 0 -61 -8 -84 -15zM744 0h-188c37 14 58 43 76 128l96 448c8 38 9 54 9 68c0 17 -1 41 -27 56h189c-40 -14 -58 -43 -76 -127l-97 -449c-6 -29 -9 -50 -9 -68s4 -39 27 -56z" />
    <glyph glyph-name="afii10046" unicode="&#x42c;" horiz-adv-x="597" 
d="M264 573l-35 -163c43 14 83 20 123 20c117 0 210 -51 210 -185c0 -240 -240 -245 -296 -245h-269c29 11 57 33 77 128l95 448c6 27 9 44 9 68c0 17 -1 41 -27 56h190c-45 -16 -61 -51 -77 -127zM217 348l-59 -266c22 -10 54 -21 109 -21c118 0 193 71 193 171
c0 95 -69 131 -155 131c-24 0 -55 -4 -88 -15z" />
    <glyph glyph-name="afii10047" unicode="&#x42d;" horiz-adv-x="643" 
d="M169 318l31 102c26 -4 62 -5 77 -5h229c1 85 -36 225 -214 225c-37 0 -109 -4 -170 -65l36 120c49 12 108 21 163 21c66 0 287 -11 287 -299c0 -249 -173 -433 -423 -433c-175 0 -207 86 -207 129c0 45 31 80 72 80c18 0 41 -7 56 -16c-21 -8 -30 -26 -30 -43
c0 -25 25 -74 123 -74c172 0 280 139 300 279h-264c-37 0 -54 -10 -66 -21z" />
    <glyph glyph-name="afii10048" unicode="&#x42e;" horiz-adv-x="1016" 
d="M229 408h128c43 156 165 308 379 308c245 0 255 -237 255 -299c0 -282 -198 -433 -392 -433c-189 0 -258 148 -258 298c0 17 1 33 3 50h-131l-46 -208c-8 -37 -9 -58 -9 -68c0 -18 4 -39 27 -56h-188c36 14 59 40 77 127l95 449c6 27 9 44 9 68c0 17 -1 41 -27 56h190
c-44 -16 -61 -51 -77 -127zM719 651c-137 0 -276 -137 -276 -370c0 -173 82 -232 171 -232c151 0 275 153 275 372c0 215 -133 230 -170 230z" />
    <glyph glyph-name="afii10049" unicode="&#x42f;" horiz-adv-x="604" 
d="M386 127l106 497c-23 3 -56 6 -81 6c-101 0 -199 -40 -199 -148c0 -115 104 -143 171 -139c-57 -83 -211 -293 -304 -333c-26 -11 -60 -16 -102 -16c-34 0 -53 2 -72 6c109 51 222 136 344 308c-88 13 -139 84 -139 175c0 60 31 223 308 223c102 0 65 -7 235 -6
c-38 -13 -59 -44 -77 -127l-96 -449c-3 -16 -8 -55 -8 -69c0 -32 13 -47 26 -55h-189c44 16 61 51 77 127z" />
    <glyph glyph-name="afii10065" unicode="&#x430;" horiz-adv-x="555" 
d="M335 89l-76 -95c-26 -9 -47 -10 -59 -10c-83 0 -170 54 -170 190c0 179 135 317 316 317c15 0 34 -1 49 -3c36 -4 50 -10 65 -10c19 0 50 12 68 20l-71 -336c-2 -11 -11 -56 -11 -70c0 -18 9 -38 42 -38c16 0 30 3 43 10l-66 -70c-10 -2 -25 -4 -36 -4
c-33 0 -77 17 -77 74c0 17 5 35 8 51l61 287c-31 20 -62 26 -92 26c-126 0 -205 -107 -205 -240c0 -25 1 -129 101 -129c45 0 90 20 110 30z" />
    <glyph glyph-name="afii10066" unicode="&#x431;" horiz-adv-x="558" 
d="M618 718l-74 -109c-43 -3 -58 -2 -95 -3c-124 -2 -253 -24 -312 -212l7 -5c59 82 143 92 189 92c137 0 191 -92 191 -181c0 -106 -70 -316 -282 -316c-164 0 -202 129 -202 227c0 128 71 349 210 436c75 47 159 53 258 53h50c21 0 41 2 60 18zM310 416
c-122 0 -176 -133 -176 -227c0 -102 59 -140 124 -140c108 0 172 113 172 233c0 100 -57 134 -120 134z" />
    <glyph glyph-name="afii10067" unicode="&#x432;" horiz-adv-x="517" 
d="M353 259v-4c57 3 113 -28 113 -90c0 -67 -64 -181 -283 -181c-131 0 -148 75 -148 133c0 101 41 233 96 294c62 69 141 80 208 80c100 0 141 -42 141 -101c0 -44 -24 -112 -127 -131zM151 270l90 8c67 6 148 20 148 93c0 55 -53 58 -81 58c-30 0 -114 -7 -157 -159z
M136 213c-6 -22 -12 -52 -12 -77c0 -72 36 -90 93 -90c109 0 155 60 155 111c0 70 -96 68 -124 68c-35 0 -72 -5 -112 -12z" />
    <glyph glyph-name="afii10068" unicode="&#x433;" horiz-adv-x="445" 
d="M109 376l21 87c48 22 88 28 130 28c126 0 171 -46 171 -109c0 -92 -79 -123 -160 -150c-90 -29 -155 -47 -155 -112c0 -57 49 -71 97 -71c66 0 135 28 192 75l-29 -99c-84 -39 -161 -41 -181 -41c-30 0 -173 5 -173 132c0 101 86 124 175 152c73 24 140 44 140 107
c0 16 -10 51 -85 51c-31 0 -75 -7 -143 -50z" />
    <glyph glyph-name="afii10069" unicode="&#x434;" horiz-adv-x="571" 
d="M201 677l53 48c153 -2 291 -111 291 -322c0 -130 -58 -419 -321 -419c-152 0 -193 108 -193 198c0 170 132 309 281 309c39 0 66 -9 91 -25l17 -88c-23 32 -58 48 -100 48c-125 0 -190 -134 -190 -238c0 -97 52 -139 109 -139c95 0 212 113 212 349
c0 223 -140 280 -250 279z" />
    <glyph glyph-name="afii10070" unicode="&#x435;" horiz-adv-x="464" 
d="M412 128l-29 -99c-86 -41 -148 -45 -182 -45c-67 0 -170 19 -170 163c0 158 109 344 302 344c103 0 131 -57 131 -97c0 -38 -17 -105 -127 -156c-93 -43 -187 -53 -216 -56c-1 -5 -1 -10 -1 -15c0 -38 17 -113 116 -113c39 0 112 9 176 74zM127 234c83 9 241 54 241 136
c0 35 -30 54 -66 54c-62 0 -153 -65 -175 -190z" />
    <glyph glyph-name="afii10072" unicode="&#x436;" horiz-adv-x="883" 
d="M544 500l-50 -213h73c31 92 122 204 232 204c65 0 94 -42 94 -86c0 -32 -22 -66 -71 -66c-12 0 -25 2 -40 10c17 11 21 26 21 36c0 27 -14 41 -35 41c-60 0 -133 -126 -133 -261c0 -32 2 -118 85 -118c15 0 57 2 107 49l-26 -86c-29 -14 -67 -26 -101 -26
c-62 0 -154 33 -154 183c0 19 1 38 5 57h-72l-52 -224c-28 -1 -58 -8 -88 -25l58 249h-71c-23 -102 -118 -240 -242 -240c-65 0 -94 42 -94 86c0 32 22 66 71 66c12 0 25 -2 40 -10c-17 -11 -21 -26 -21 -36c0 -27 14 -41 35 -41c59 0 133 126 133 262
c0 102 -49 117 -81 117c-41 0 -77 -28 -96 -49l26 86c34 18 69 26 89 26c71 0 151 -44 151 -175c0 -10 0 -19 -1 -29h76l44 188c28 1 58 8 88 25z" />
    <glyph glyph-name="afii10073" unicode="&#x437;" horiz-adv-x="440" 
d="M277 265v-3c22 -1 113 -9 113 -97c0 -79 -76 -181 -236 -181c-62 0 -162 23 -162 104c0 39 25 67 62 67c21 0 41 -8 55 -22c-16 -8 -27 -18 -27 -36c0 -26 19 -50 77 -50c84 0 137 53 137 115c0 64 -64 70 -109 70c-17 0 -32 0 -52 -4l12 57h33c93 0 133 44 133 87
c0 54 -64 54 -80 54c-26 0 -83 -2 -144 -61l22 96c43 20 88 30 147 30c31 0 145 -2 145 -101c0 -77 -66 -119 -126 -125z" />
    <glyph glyph-name="afii10074" unicode="&#x438;" horiz-adv-x="567" 
d="M537 64l-66 -71c-10 -2 -22 -3 -32 -3c-49 0 -84 33 -82 71l1 19c-47 -61 -114 -96 -189 -96c-96 0 -121 56 -121 103c0 30 12 83 14 93l46 211c2 11 6 25 6 36c0 23 -11 41 -33 48h50c21 0 48 1 88 23l-69 -315c-9 -43 -10 -57 -10 -64c0 -65 63 -66 78 -66
c94 0 153 87 173 179l35 159c2 11 6 25 6 36c0 23 -11 41 -33 48h50c21 0 48 1 88 23l-72 -333c-9 -41 -11 -56 -11 -67c0 -7 1 -44 39 -44c14 0 31 3 44 10z" />
    <glyph glyph-name="afii10075" unicode="&#x439;" horiz-adv-x="567" 
d="M537 64l-66 -71c-10 -2 -22 -3 -32 -3c-49 0 -84 33 -82 71l1 19c-47 -61 -114 -96 -189 -96c-96 0 -121 56 -121 103c0 30 12 83 14 93l46 211c2 11 6 25 6 36c0 23 -11 41 -33 48h50c21 0 48 1 88 23l-69 -315c-9 -43 -10 -57 -10 -64c0 -65 63 -66 78 -66
c94 0 153 87 173 179l35 159c2 11 6 25 6 36c0 23 -11 41 -33 48h50c21 0 48 1 88 23l-72 -333c-9 -41 -11 -56 -11 -67c0 -7 1 -44 39 -44c14 0 31 3 44 10zM504 696l-29 -107c-28 -16 -71 -35 -143 -35c-94 0 -140 42 -140 87c0 36 28 60 64 60c22 0 37 -6 57 -16
c-15 -10 -25 -16 -25 -31c0 -21 21 -44 68 -44c46 0 101 19 148 86z" />
    <glyph glyph-name="afii10076" unicode="&#x43a;" horiz-adv-x="482" 
d="M147 0h-159c34 21 43 43 49 70l73 337c4 18 4 25 4 26c0 17 -12 35 -34 42h47c23 0 49 2 91 25l-91 -430c-4 -19 -9 -48 20 -70zM186 256l137 126c45 41 57 56 57 70s-5 24 -16 33h157l-241 -210l27 -49c69 -125 117 -183 173 -226l-37 -6c-113 -18 -151 69 -218 191z
" />
    <glyph glyph-name="afii10077" unicode="&#x43b;" horiz-adv-x="531" 
d="M502 496l-71 -324c-4 -19 -11 -59 -11 -77c0 -10 2 -41 40 -41c20 0 36 7 42 10l-65 -71c-10 -2 -23 -3 -34 -3c-75 0 -78 58 -78 73c0 20 5 45 8 60l67 298c-136 1 -171 -87 -199 -170l-30 -88c-22 -65 -55 -179 -162 -179c-43 0 -69 28 -69 68c0 33 20 61 53 72
c-1 -20 7 -43 32 -43c45 0 68 62 88 121l31 90c32 92 72 148 149 175c51 18 99 17 137 18c26 1 47 2 72 11z" />
    <glyph glyph-name="afii10078" unicode="&#x43c;" horiz-adv-x="696" 
d="M121 475h148l72 -338l179 291c11 18 17 26 25 47h29c21 0 48 1 88 23l-55 -335c-2 -14 -9 -52 -9 -68c0 -27 15 -41 40 -41c20 0 36 7 42 10l-65 -71c-10 -2 -23 -3 -34 -3c-49 0 -78 27 -78 72c0 23 6 54 8 67l47 260l-251 -405l-18 18c-12 12 -17 34 -22 57l-67 322
l-48 -203c-21 -88 -59 -194 -145 -194c-32 0 -67 22 -67 68c0 33 20 61 53 72c0 -7 0 -43 31 -43c47 0 69 84 80 127l59 222c-17 29 -31 39 -42 45z" />
    <glyph glyph-name="afii10079" unicode="&#x43d;" horiz-adv-x="564" 
d="M153 0h-165c45 25 52 62 60 99l63 292c2 11 6 24 6 36c0 23 -11 41 -33 48h50c21 0 48 1 88 23l-45 -210h225l22 103c2 11 6 24 6 36c0 23 -11 41 -33 48h50c21 0 48 1 88 23l-71 -326c-3 -15 -11 -58 -11 -77c0 -10 2 -41 40 -41c20 0 36 7 42 10l-65 -71
c-10 -2 -23 -3 -34 -3c-58 0 -78 36 -78 72c0 28 5 49 8 61l23 104h-226l-28 -128c-3 -13 -8 -44 -8 -53c0 -23 17 -39 26 -46z" />
    <glyph glyph-name="afii10080" unicode="&#x43e;" horiz-adv-x="534" 
d="M316 491c133 0 186 -94 186 -186c0 -106 -68 -321 -277 -321c-121 0 -194 71 -194 192c0 148 99 315 285 315zM293 428c-115 0 -168 -145 -168 -241c0 -97 51 -140 116 -140c86 0 167 89 167 243c0 116 -69 138 -115 138z" />
    <glyph glyph-name="afii10081" unicode="&#x43f;" horiz-adv-x="574" 
d="M153 0h-165c45 25 52 62 60 99l63 292c2 11 6 24 6 36c0 23 -11 41 -33 48h50c21 0 48 1 88 23l-22 -96c69 81 147 89 190 89c86 0 127 -39 127 -95c0 -21 -7 -59 -10 -74l-33 -150c-3 -15 -11 -58 -11 -77c0 -10 2 -41 40 -41c20 0 36 7 42 10l-65 -71
c-10 -2 -23 -3 -34 -3c-58 0 -78 36 -78 72c0 28 5 49 8 61l41 190c2 8 8 31 8 45c0 22 -8 64 -78 64c-62 0 -107 -36 -130 -64c-36 -44 -51 -111 -62 -165l-20 -94c-2 -10 -8 -43 -8 -53c0 -23 17 -39 26 -46z" />
    <glyph glyph-name="afii10082" unicode="&#x440;" horiz-adv-x="560" 
d="M168 -1l-22 94c14 -15 45 -42 104 -42c112 0 184 101 184 225c0 95 -43 145 -113 145c-47 0 -122 -26 -150 -152l-85 -386c-8 -35 -8 -48 -8 -53c0 -11 4 -29 26 -47h-165c45 27 52 60 60 100l109 508c2 11 6 24 6 36c0 23 -11 41 -33 48h50c21 0 48 1 88 23l-23 -95h3
c46 79 119 88 160 88c163 0 169 -148 169 -199c0 -210 -144 -308 -278 -308c-32 0 -58 6 -82 15z" />
    <glyph glyph-name="afii10083" unicode="&#x441;" horiz-adv-x="452" 
d="M414 119l-43 -107c-43 -20 -85 -28 -137 -28c-174 0 -208 108 -208 185c0 143 108 322 304 322c94 0 123 -51 123 -86c0 -31 -21 -66 -75 -66c-14 0 -26 3 -41 10c12 9 20 22 20 36c0 15 -13 43 -56 43c-106 0 -181 -116 -181 -235c0 -30 8 -134 126 -134
c63 0 124 26 168 60z" />
    <glyph glyph-name="afii10084" unicode="&#x442;" horiz-adv-x="886" 
d="M155 0h-165c45 24 52 62 60 99l62 292c2 11 6 24 6 36c0 23 -11 41 -33 48h50c21 0 48 1 88 23l-22 -96c67 79 148 89 190 89c22 0 119 0 121 -97c31 41 90 97 190 97c69 0 126 -27 126 -100c0 -7 -1 -27 -16 -96l-26 -123c-3 -15 -11 -58 -11 -77c0 -10 2 -41 40 -41
c20 0 36 7 42 10l-65 -71c-10 -2 -23 -3 -34 -3c-58 0 -78 36 -78 72c0 28 5 49 8 61l41 191c4 16 8 31 8 46c0 50 -39 64 -71 64c-54 0 -102 -34 -125 -59c-43 -45 -52 -104 -65 -161l-23 -105c-4 -16 -8 -31 -8 -51c0 -9 1 -29 26 -48h-165c46 22 54 65 61 99l44 206
c2 12 9 43 9 62c0 28 -23 57 -73 57c-61 0 -108 -43 -125 -62c-38 -42 -48 -96 -62 -158l-23 -105c-3 -13 -8 -44 -8 -53c0 -23 17 -39 26 -46z" />
    <glyph glyph-name="afii10085" unicode="&#x443;" horiz-adv-x="552" 
d="M217 498l-70 -321c-5 -21 -7 -31 -7 -42c0 -42 37 -60 76 -60c51 0 101 33 124 58c24 26 45 77 54 121l28 137c2 12 6 24 6 36c0 23 -11 41 -33 48h50c21 0 48 1 88 23l-97 -451c-16 -76 -31 -136 -76 -191c-47 -56 -106 -82 -187 -82c-128 0 -171 57 -171 99
c0 30 16 66 66 66c23 0 37 -5 48 -11c-9 -4 -22 -13 -22 -32c0 -31 34 -57 89 -57c113 0 144 108 162 191l13 60c-47 -50 -114 -90 -189 -90c-81 0 -121 46 -121 94c0 14 2 35 19 114l39 183c2 11 6 24 6 36c0 23 -11 41 -33 48h50c21 0 48 1 88 23z" />
    <glyph glyph-name="afii10086" unicode="&#x444;" horiz-adv-x="690" 
d="M354 487l6 28c42 197 162 201 184 201c27 0 47 -6 64 -13l-50 -60c-6 4 -15 10 -30 10c-39 0 -69 -34 -88 -156l-2 -13c102 28 228 -25 228 -185c0 -194 -158 -342 -323 -311l-3 -13c-11 -48 -53 -201 -184 -201c-27 0 -47 6 -64 13l50 60c6 -4 15 -10 30 -10
c37 0 70 33 88 154c-15 -4 -31 -7 -46 -7c-86 0 -183 50 -183 192c0 180 130 315 288 315c12 0 23 -2 35 -4zM274 56l67 366c-10 4 -22 6 -38 6c-100 0 -180 -98 -180 -233c0 -89 40 -147 115 -147c12 0 24 3 36 8zM424 420l-68 -366c10 -4 20 -6 38 -6
c123 0 180 123 180 233c0 131 -86 165 -150 139z" />
    <glyph glyph-name="afii10087" unicode="&#x445;" horiz-adv-x="520" 
d="M279 302l37 50c43 59 96 129 160 129c21 0 33 -5 48 -19l3 -81c-15 9 -29 11 -47 11c-17 0 -45 -1 -90 -53l-82 -94l75 -135c28 -50 45 -94 94 -114c-39 -12 -60 -12 -80 -12c-29 0 -47 -1 -82 69l-68 134l-53 -64c-64 -78 -100 -133 -158 -133c-27 0 -41 10 -51 21
l-4 81c12 -6 30 -12 47 -12c48 0 88 48 138 108l48 58l-60 116c-31 61 -45 95 -92 113h133z" />
    <glyph glyph-name="afii10088" unicode="&#x446;" horiz-adv-x="543" 
d="M512 498l-72 -333c-9 -41 -11 -56 -11 -67c0 -7 1 -44 39 -44c15 0 42 6 60 15c-48 -75 -84 -177 -93 -262h-92c14 72 45 133 89 185l-2 3c-9 -3 -19 -5 -28 -5c-41 0 -72 31 -70 71l1 19c-47 -61 -114 -96 -189 -96c-96 0 -121 56 -121 103c0 30 12 83 14 93l46 211
c2 11 6 25 6 36c0 23 -11 41 -33 48h50c21 0 48 1 88 23l-69 -315c-9 -43 -10 -57 -10 -64c0 -65 63 -66 78 -66c94 0 153 87 173 179l35 159c2 11 6 25 6 36c0 23 -11 41 -33 48h50c21 0 48 1 88 23z" />
    <glyph glyph-name="afii10089" unicode="&#x447;" horiz-adv-x="521" 
d="M491 498l-73 -332c-3 -15 -11 -58 -11 -77c0 -10 2 -41 40 -41c20 0 36 7 42 10l-65 -71c-10 -2 -23 -3 -34 -3c-58 0 -78 36 -78 72c0 28 5 49 8 61l21 97c-46 -28 -114 -59 -178 -59c-83 0 -117 40 -117 84c0 19 10 69 13 82l16 70c3 12 6 25 6 36c0 23 -11 41 -33 48
h50c21 0 48 1 88 23l-39 -174c-2 -9 -9 -43 -9 -53c0 -17 13 -47 73 -47c68 0 139 45 153 102l16 65c5 22 6 32 6 36c0 23 -11 41 -33 48h50c21 0 48 1 88 23z" />
    <glyph glyph-name="afii10090" unicode="&#x448;" horiz-adv-x="864" 
d="M221 498l-69 -315c-9 -41 -13 -54 -13 -68c0 -31 16 -62 61 -62c36 0 89 18 125 57c40 42 49 90 64 157l27 124c2 11 6 25 6 36c0 23 -11 41 -33 48h50c21 0 48 1 88 23l-69 -315c-5 -21 -12 -51 -12 -75c0 -34 26 -55 63 -55c44 0 93 25 125 60c38 43 48 96 61 154
l27 124c2 11 6 25 6 36c0 23 -11 41 -33 48h50c21 0 48 1 88 23l-71 -333c-9 -41 -11 -55 -11 -67c0 -7 1 -44 39 -44c14 0 31 3 44 10l-66 -71c-10 -2 -22 -3 -32 -3c-49 0 -84 33 -82 71l1 19c-68 -89 -155 -96 -191 -96c-95 0 -109 62 -110 97c-29 -42 -85 -97 -180 -97
c-69 0 -126 27 -126 100c0 25 13 83 16 96l46 211c2 11 6 25 6 36c0 23 -11 41 -33 48h50c21 0 48 1 88 23z" />
    <glyph glyph-name="afii10091" unicode="&#x449;" horiz-adv-x="840" 
d="M196 498l-69 -315c-9 -41 -13 -54 -13 -68c0 -31 16 -62 61 -62c36 0 89 18 125 57c40 42 49 90 64 157l27 124c2 11 6 25 6 36c0 23 -11 41 -33 48h50c21 0 48 1 88 23l-69 -315c-5 -21 -12 -51 -12 -75c0 -34 26 -55 63 -55c44 0 93 25 125 60c38 43 48 96 61 154
l27 124c2 11 6 25 6 36c0 23 -11 41 -33 48h50c21 0 48 1 88 23l-71 -333c-9 -41 -11 -55 -11 -67c0 -7 1 -44 39 -44c15 0 42 6 60 15c-48 -75 -84 -177 -93 -262h-92c14 72 45 133 89 185l-2 3c-9 -3 -19 -5 -28 -5c-41 0 -72 31 -70 71l1 19c-68 -89 -155 -96 -191 -96
c-95 0 -109 62 -110 97c-29 -42 -85 -97 -180 -97c-69 0 -126 27 -126 100c0 25 13 83 16 96l46 211c2 11 6 25 6 36c0 23 -11 41 -33 48h50c21 0 48 1 88 23z" />
    <glyph glyph-name="afii10092" unicode="&#x44a;" horiz-adv-x="517" 
d="M224 261l58 67c17 4 36 7 56 7c106 0 144 -69 144 -139c0 -125 -111 -212 -258 -212c-25 0 -166 3 -166 135c0 78 59 153 96 209l57 86c-16 -7 -32 -11 -50 -11c-12 0 -30 1 -42 3c-16 2 -27 6 -48 6c-58 0 -90 -27 -102 -39l53 111c25 5 37 7 54 7c28 0 49 -4 69 -7
c17 -3 62 -9 98 -9c21 0 58 5 69 6l-81 -152c-37 -69 -79 -134 -79 -204c0 -20 4 -78 90 -78c100 0 146 62 146 131c0 88 -79 89 -103 89c-21 0 -39 -1 -61 -6z" />
    <glyph glyph-name="afii10093" unicode="&#x44b;" horiz-adv-x="727" 
d="M212 498l-73 -314c-2 -10 -10 -44 -10 -68c0 -61 48 -70 81 -70c71 0 140 40 140 130c0 91 -80 91 -103 91c-21 0 -39 -1 -61 -6l58 67c17 4 36 7 56 7c91 0 144 -53 144 -135c0 -111 -95 -216 -255 -216c-66 0 -147 21 -147 117c0 20 6 58 11 79l51 227c3 14 4 21 4 26
c0 21 -16 36 -34 42h47c23 0 54 3 91 23zM675 59l-66 -72c-11 -3 -19 -3 -30 -3c-27 0 -84 2 -84 75c0 23 5 44 9 61l61 287c2 10 4 19 4 26c0 21 -16 36 -34 42h47c23 0 54 3 91 23l-70 -330c-6 -30 -12 -58 -12 -78c0 -26 14 -41 41 -41c5 0 23 0 43 10z" />
    <glyph glyph-name="afii10094" unicode="&#x44c;" horiz-adv-x="479" 
d="M212 498l-73 -314c-2 -10 -10 -45 -10 -68c0 -65 55 -69 78 -69c104 0 143 62 143 129c0 91 -80 91 -103 91c-21 0 -39 -1 -61 -6l58 67c17 4 36 7 56 7c89 0 144 -50 144 -143c0 -141 -146 -208 -259 -208c-141 0 -143 95 -143 117c0 21 6 58 11 79l51 227
c3 14 4 21 4 26c0 21 -16 36 -34 42h47c23 0 54 3 91 23z" />
    <glyph glyph-name="afii10095" unicode="&#x44d;" horiz-adv-x="490" 
d="M89 365l22 96c25 12 73 30 146 30c183 0 201 -134 201 -186c0 -152 -105 -321 -296 -321c-77 0 -170 25 -170 104c0 39 25 67 63 67c18 0 38 -6 55 -22c-16 -8 -27 -18 -27 -36c0 -24 17 -50 74 -50c128 0 191 89 202 180h-138c-28 0 -55 -4 -81 -26l23 90
c12 -2 23 -3 35 -3h166c3 55 -18 140 -122 140c-83 0 -138 -48 -153 -63z" />
    <glyph glyph-name="afii10096" unicode="&#x44e;" horiz-adv-x="777" 
d="M176 286h117c37 122 138 205 266 205c133 0 186 -94 186 -186c0 -106 -68 -321 -277 -321c-141 0 -194 94 -194 195c0 16 2 33 5 49h-116l-28 -129c-3 -13 -8 -44 -8 -53c0 -23 17 -39 26 -46h-165c45 25 52 62 60 99l63 292c2 11 6 24 6 36c0 23 -11 41 -33 48h50
c21 0 48 1 88 23zM536 428c-115 0 -168 -145 -168 -241c0 -97 51 -140 116 -140c86 0 167 89 167 243c0 116 -69 138 -115 138z" />
    <glyph glyph-name="afii10097" unicode="&#x44f;" horiz-adv-x="509" 
d="M287 232c-147 -217 -192 -236 -256 -236c-13 0 -32 0 -91 4c103 43 198 167 229 210c-58 8 -99 54 -99 116c0 67 54 165 232 165c104 0 64 -5 106 -5c21 0 45 2 72 10l-71 -324c-4 -19 -11 -59 -11 -77c0 -10 2 -41 40 -41c20 0 36 7 42 10l-65 -71c-10 -2 -23 -3 -34 -3
c-75 0 -78 58 -78 73c0 9 1 28 8 60l67 301c-27 4 -59 6 -82 6c-102 0 -132 -57 -132 -105c0 -78 74 -96 123 -93z" />
    <glyph glyph-name="Euro" unicode="&#x20ac;" 
d="M652 564h-22c5 79 -52 111 -132 111c-141 0 -213 -104 -261 -253h322l-26 -39h-307c-2 -10 -5 -23 -7 -33c-3 -10 -6 -25 -7 -33h277l-26 -40h-257c-21 -160 32 -252 154 -252c72 0 149 29 180 113h21l-26 -87c-38 -36 -98 -66 -203 -66c-176 0 -248 104 -226 292h-76
l26 40h53c1 9 4 25 6 34c1 7 5 23 8 32h-71l26 39h57c60 178 158 294 352 294c112 0 157 -33 177 -62z" />
    </font>
</defs>
</svg>
